<svg width="29" height="29" viewBox="0 0 29 29" fill="none" xmlns="http://www.w3.org/2000/svg">
<path d="M12.3848 12.1193C12.3848 12.7718 12.566 12.8684 12.9768 13.0134L13.5931 13.2309V11.1768H13.2306C12.7714 11.1768 12.3848 11.5997 12.3848 12.1193Z" fill="black" fill-opacity="0.6"/>
<path d="M15.4062 17.8227H15.7688C16.24 17.8227 16.6146 17.3998 16.6146 16.8802C16.6146 16.2277 16.4333 16.1311 16.0225 15.9861L15.4062 15.7686V17.8227Z" fill="black" fill-opacity="0.6"/>
<path d="M23.6585 6.62199L21.1814 9.09908C21.0002 9.28033 20.7706 9.36491 20.541 9.36491C20.3114 9.36491 20.0818 9.28033 19.9006 9.09908C19.5502 8.74866 19.5502 8.16866 19.9006 7.81824L22.3777 5.34116C20.251 3.52866 17.5081 2.41699 14.4993 2.41699C7.82935 2.41699 2.41602 7.83033 2.41602 14.5003C2.41602 21.1703 7.82935 26.5837 14.4993 26.5837C21.1693 26.5837 26.5827 21.1703 26.5827 14.5003C26.5827 11.4916 25.471 8.74866 23.6585 6.62199ZM16.6139 14.2828C17.3873 14.5607 18.4264 15.1166 18.4264 16.8928C18.4264 18.4032 17.2302 19.6478 15.7681 19.6478H15.4056V19.9499C15.4056 20.4453 14.9948 20.8562 14.4993 20.8562C14.0039 20.8562 13.5931 20.4453 13.5931 19.9499V19.6478H13.4964C11.8893 19.6478 10.5723 18.2945 10.5723 16.627C10.5723 16.1195 10.9831 15.7087 11.4785 15.7087C11.9739 15.7087 12.3848 16.1195 12.3848 16.6149C12.3848 17.2795 12.8802 17.8232 13.4964 17.8232H13.5931V15.1407L12.3848 14.7178C11.6114 14.4399 10.5723 13.8841 10.5723 12.1078C10.5723 10.5974 11.7685 9.35283 13.2306 9.35283H13.5931V9.06283C13.5931 8.56741 14.0039 8.15658 14.4993 8.15658C14.9948 8.15658 15.4056 8.56741 15.4056 9.06283V9.36491H15.5023C17.1093 9.36491 18.4264 10.7182 18.4264 12.3857C18.4264 12.8812 18.0156 13.292 17.5202 13.292C17.0248 13.292 16.6139 12.8812 16.6139 12.3857C16.6139 11.7212 16.1185 11.1774 15.5023 11.1774H15.4056V13.8599L16.6139 14.2828Z" fill="#636363"/>
<path d="M27.4171 2.06658C27.3204 1.84908 27.1513 1.66783 26.9217 1.57116C26.8129 1.53491 26.7042 1.51074 26.5833 1.51074H21.75C21.2546 1.51074 20.8438 1.92158 20.8438 2.41699C20.8438 2.91241 21.2546 3.32324 21.75 3.32324H24.3963L22.3783 5.34116C22.8375 5.73991 23.2604 6.16283 23.6592 6.62199L25.6771 4.60408V7.25033C25.6771 7.74574 26.0879 8.15658 26.5833 8.15658C27.0788 8.15658 27.4896 7.74574 27.4896 7.25033V2.41699C27.4896 2.29616 27.4654 2.18741 27.4171 2.06658Z" fill="#636363"/>
</svg>
