<svg width="29" height="29" viewBox="0 0 29 29" fill="none" xmlns="http://www.w3.org/2000/svg">
<path d="M22.7285 7.55249H24.3718C24.1423 7.22624 23.9006 6.92415 23.6468 6.62207L22.7285 7.55249Z" fill="white"/>
<path d="M22.3777 5.34121C22.0756 5.08746 21.7735 4.84579 21.4473 4.61621V6.25954L22.3777 5.34121Z" fill="white"/>
<path d="M23.6597 6.6219L27.2243 3.05732C27.5747 2.7069 27.5747 2.1269 27.2243 1.77648C26.8739 1.42607 26.2939 1.42607 25.9435 1.77648L22.3789 5.34107C22.8381 5.73982 23.261 6.17482 23.6597 6.6219Z" fill="white"/>
<path d="M21.4489 3.625C21.4489 3.12958 21.038 2.71875 20.5426 2.71875C20.0593 2.71875 19.6726 3.10542 19.6484 3.57667C20.2768 3.87875 20.8809 4.21708 21.4489 4.61583V3.625Z" fill="white"/>
<path d="M26.2822 8.45801C26.2822 7.96259 25.8714 7.55176 25.376 7.55176H24.373C24.7718 8.11967 25.1222 8.72384 25.4122 9.35217C25.8955 9.32801 26.2822 8.94134 26.2822 8.45801Z" fill="white"/>
<path d="M15.4062 17.8227H15.7688C16.24 17.8227 16.6146 17.3998 16.6146 16.8802C16.6146 16.2277 16.4333 16.1311 16.0225 15.9861L15.4062 15.7686V17.8227Z" fill="white"/>
<path d="M25.4227 9.35283C25.4106 9.35283 25.3985 9.36491 25.3743 9.36491H20.541C20.4202 9.36491 20.3114 9.34074 20.1906 9.29241C19.9731 9.19574 19.7918 9.02658 19.6952 8.79699C19.6589 8.68824 19.6348 8.57949 19.6348 8.45866V3.62533C19.6348 3.61324 19.6469 3.60116 19.6469 3.57699C18.076 2.83991 16.336 2.41699 14.4993 2.41699C7.82935 2.41699 2.41602 7.83033 2.41602 14.5003C2.41602 21.1703 7.82935 26.5837 14.4993 26.5837C21.1693 26.5837 26.5827 21.1703 26.5827 14.5003C26.5827 12.6637 26.1598 10.9237 25.4227 9.35283ZM16.6139 14.2828C17.3873 14.5487 18.4264 15.1166 18.4264 16.8928C18.4264 18.4032 17.2302 19.6478 15.7681 19.6478H15.4056V19.9499C15.4056 20.4453 14.9948 20.8562 14.4993 20.8562C14.0039 20.8562 13.5931 20.4453 13.5931 19.9499V19.6478H13.4964C11.8893 19.6478 10.5723 18.2945 10.5723 16.627C10.5723 16.1195 10.9831 15.7087 11.4785 15.7087C11.9739 15.7087 12.3848 16.1195 12.3848 16.6149C12.3848 17.2795 12.8802 17.8232 13.4964 17.8232H13.5931V15.1407L12.3848 14.7178C11.6114 14.452 10.5723 13.8841 10.5723 12.1078C10.5723 10.5974 11.7685 9.35283 13.2306 9.35283H13.5931V9.06283C13.5931 8.56741 14.0039 8.15658 14.4993 8.15658C14.9948 8.15658 15.4056 8.56741 15.4056 9.06283V9.36491H15.5023C17.1093 9.36491 18.4264 10.7182 18.4264 12.3857C18.4264 12.8812 18.0156 13.292 17.5202 13.292C17.0248 13.292 16.6139 12.8812 16.6139 12.3857C16.6139 11.7212 16.1185 11.1774 15.5023 11.1774H15.4056V13.8599L16.6139 14.2828Z" fill="white"/>
<path d="M12.3848 12.1193C12.3848 12.7718 12.566 12.8684 12.9768 13.0134L13.5931 13.2309V11.1768H13.2306C12.7714 11.1768 12.3848 11.5997 12.3848 12.1193Z" fill="white"/>
</svg>
