<svg width="20" height="20" viewBox="0 0 20 20" fill="none" xmlns="http://www.w3.org/2000/svg">
<path d="M14.166 2.91699H5.83268C3.33268 2.91699 1.66602 4.16699 1.66602 7.08366V12.917C1.66602 15.8337 3.33268 17.0837 5.83268 17.0837H14.166C16.666 17.0837 18.3327 15.8337 18.3327 12.917V7.08366C18.3327 4.16699 16.666 2.91699 14.166 2.91699ZM5.20768 12.0837C5.20768 12.4253 4.92435 12.7087 4.58268 12.7087C4.24102 12.7087 3.95768 12.4253 3.95768 12.0837V7.91699C3.95768 7.57533 4.24102 7.29199 4.58268 7.29199C4.92435 7.29199 5.20768 7.57533 5.20768 7.91699V12.0837ZM9.99935 12.5003C8.61602 12.5003 7.49935 11.3837 7.49935 10.0003C7.49935 8.61699 8.61602 7.50033 9.99935 7.50033C11.3827 7.50033 12.4993 8.61699 12.4993 10.0003C12.4993 11.3837 11.3827 12.5003 9.99935 12.5003ZM16.041 12.0837C16.041 12.4253 15.7577 12.7087 15.416 12.7087C15.0743 12.7087 14.791 12.4253 14.791 12.0837V7.91699C14.791 7.57533 15.0743 7.29199 15.416 7.29199C15.7577 7.29199 16.041 7.57533 16.041 7.91699V12.0837Z" fill="#151B33"/>
</svg>
