<svg width="15" height="14" viewBox="0 0 15 14" fill="none" xmlns="http://www.w3.org/2000/svg">
<path d="M4.61111 7H7.5H4.61111ZM7.5 7H10.3889H7.5ZM7.5 7V9.66667V7ZM7.5 7V4.33333V7ZM7.5 13C3.91015 13 1 10.3137 1 7C1 3.68629 3.91015 1 7.5 1C11.0899 1 14 3.68629 14 7C14 10.3137 11.0899 13 7.5 13Z" fill="black"/>
<path d="M4.61111 7H7.5M7.5 7H10.3889M7.5 7V9.66667M7.5 7V4.33333M7.5 13C3.91015 13 1 10.3137 1 7C1 3.68629 3.91015 1 7.5 1C11.0899 1 14 3.68629 14 7C14 10.3137 11.0899 13 7.5 13Z" stroke="white" stroke-width="2" stroke-linecap="round" stroke-linejoin="round"/>
</svg>
