<svg width="29" height="29" viewBox="0 0 29 29" fill="none" xmlns="http://www.w3.org/2000/svg">
<path d="M20.2395 4.30169V2.41669C20.2395 1.92127 19.8287 1.51044 19.3333 1.51044C18.8379 1.51044 18.427 1.92127 18.427 2.41669V4.22919H10.5729V2.41669C10.5729 1.92127 10.162 1.51044 9.66662 1.51044C9.1712 1.51044 8.76037 1.92127 8.76037 2.41669V4.30169C5.49787 4.60377 3.91495 6.54919 3.67328 9.4371C3.64912 9.78752 3.93912 10.0775 4.27745 10.0775H24.7225C25.0729 10.0775 25.3629 9.77544 25.3266 9.4371C25.085 6.54919 23.502 4.60377 20.2395 4.30169Z" fill="white"/>
<path d="M24.1667 11.89H4.83333C4.16875 11.89 3.625 12.4338 3.625 13.0983V20.5417C3.625 24.1667 5.4375 26.5833 9.66667 26.5833H19.3333C23.5625 26.5833 25.375 24.1667 25.375 20.5417V13.0983C25.375 12.4338 24.8313 11.89 24.1667 11.89ZM11.1288 22.0038C11.0683 22.0521 11.0079 22.1125 10.9475 22.1488C10.875 22.1971 10.8025 22.2333 10.73 22.2575C10.6575 22.2938 10.585 22.3179 10.5125 22.33C10.4279 22.3421 10.3554 22.3542 10.2708 22.3542C10.1137 22.3542 9.95667 22.3179 9.81167 22.2575C9.65458 22.1971 9.53375 22.1125 9.41292 22.0038C9.19542 21.7742 9.0625 21.46 9.0625 21.1458C9.0625 20.8317 9.19542 20.5175 9.41292 20.2879C9.53375 20.1792 9.65458 20.0946 9.81167 20.0342C10.0292 19.9375 10.2708 19.9133 10.5125 19.9617C10.585 19.9738 10.6575 19.9979 10.73 20.0342C10.8025 20.0583 10.875 20.0946 10.9475 20.1429C11.0079 20.1913 11.0683 20.2396 11.1288 20.2879C11.3463 20.5175 11.4792 20.8317 11.4792 21.1458C11.4792 21.46 11.3463 21.7742 11.1288 22.0038ZM11.1288 17.7746C10.8992 17.9921 10.585 18.125 10.2708 18.125C9.95667 18.125 9.6425 17.9921 9.41292 17.7746C9.19542 17.545 9.0625 17.2308 9.0625 16.9167C9.0625 16.6025 9.19542 16.2883 9.41292 16.0588C9.75125 15.7204 10.2829 15.6117 10.73 15.805C10.8871 15.8654 11.02 15.95 11.1288 16.0588C11.3463 16.2883 11.4792 16.6025 11.4792 16.9167C11.4792 17.2308 11.3463 17.545 11.1288 17.7746ZM15.3579 22.0038C15.1283 22.2213 14.8142 22.3542 14.5 22.3542C14.1858 22.3542 13.8717 22.2213 13.6421 22.0038C13.4246 21.7742 13.2917 21.46 13.2917 21.1458C13.2917 20.8317 13.4246 20.5175 13.6421 20.2879C14.0892 19.8408 14.9108 19.8408 15.3579 20.2879C15.5754 20.5175 15.7083 20.8317 15.7083 21.1458C15.7083 21.46 15.5754 21.7742 15.3579 22.0038ZM15.3579 17.7746C15.2975 17.8229 15.2371 17.8713 15.1767 17.9196C15.1042 17.9679 15.0317 18.0042 14.9592 18.0283C14.8867 18.0646 14.8142 18.0888 14.7417 18.1008C14.6571 18.1129 14.5846 18.125 14.5 18.125C14.1858 18.125 13.8717 17.9921 13.6421 17.7746C13.4246 17.545 13.2917 17.2308 13.2917 16.9167C13.2917 16.6025 13.4246 16.2883 13.6421 16.0588C13.7508 15.95 13.8837 15.8654 14.0408 15.805C14.4879 15.6117 15.0196 15.7204 15.3579 16.0588C15.5754 16.2883 15.7083 16.6025 15.7083 16.9167C15.7083 17.2308 15.5754 17.545 15.3579 17.7746ZM19.5871 22.0038C19.3575 22.2213 19.0433 22.3542 18.7292 22.3542C18.415 22.3542 18.1008 22.2213 17.8713 22.0038C17.6538 21.7742 17.5208 21.46 17.5208 21.1458C17.5208 20.8317 17.6538 20.5175 17.8713 20.2879C18.3183 19.8408 19.14 19.8408 19.5871 20.2879C19.8046 20.5175 19.9375 20.8317 19.9375 21.1458C19.9375 21.46 19.8046 21.7742 19.5871 22.0038ZM19.5871 17.7746C19.5267 17.8229 19.4662 17.8713 19.4058 17.9196C19.3333 17.9679 19.2608 18.0042 19.1883 18.0283C19.1158 18.0646 19.0433 18.0888 18.9708 18.1008C18.8863 18.1129 18.8017 18.125 18.7292 18.125C18.415 18.125 18.1008 17.9921 17.8713 17.7746C17.6538 17.545 17.5208 17.2308 17.5208 16.9167C17.5208 16.6025 17.6538 16.2883 17.8713 16.0588C17.9921 15.95 18.1129 15.8654 18.27 15.805C18.4875 15.7083 18.7292 15.6842 18.9708 15.7325C19.0433 15.7446 19.1158 15.7688 19.1883 15.805C19.2608 15.8292 19.3333 15.8654 19.4058 15.9138C19.4662 15.9621 19.5267 16.0104 19.5871 16.0588C19.8046 16.2883 19.9375 16.6025 19.9375 16.9167C19.9375 17.2308 19.8046 17.545 19.5871 17.7746Z" fill="white"/>
</svg>
