<svg width="16" height="13" viewBox="0 0 16 13" fill="none" xmlns="http://www.w3.org/2000/svg">
<g id="Group 1000005992">
<path id="Vector" d="M15.6669 12.2751H0.333066C0.276605 12.2847 0.218595 12.2769 0.166559 12.2528C0.114523 12.2287 0.0708608 12.1894 0.041233 12.1399C0.0116051 12.0905 -0.00262148 12.0332 0.000397655 11.9754C0.00341679 11.9177 0.0235424 11.8623 0.0581651 11.8162L2.61237 6.90869C2.69107 6.77576 2.80093 6.66439 2.93228 6.58438C3.06363 6.50437 3.21245 6.45817 3.36564 6.44984H4.26069C4.56977 6.87906 4.91097 7.28374 5.28129 7.66034H3.5756L1.8039 11.0646H14.1961L12.4244 7.66034H10.9741C11.3446 7.28347 11.6858 6.87842 11.9947 6.44875H12.6344C12.7876 6.45728 12.9365 6.50369 13.0678 6.58389C13.1992 6.66409 13.309 6.77562 13.3876 6.90869L15.9418 11.8162C15.9765 11.8623 15.9966 11.9177 15.9996 11.9754C16.0026 12.0332 15.9884 12.0905 15.9588 12.1399C15.9291 12.1894 15.8855 12.2287 15.8334 12.2528C15.7814 12.2769 15.7234 12.2847 15.6669 12.2751ZM11.6798 3.52302C11.6798 6.40723 9.32472 6.67818 8.32144 9.4881C8.31203 9.53263 8.28777 9.57256 8.25271 9.60121C8.21764 9.62985 8.1739 9.64548 8.12879 9.64548C8.08368 9.64548 8.03994 9.62985 8.00488 9.60121C7.96981 9.57256 7.94555 9.53263 7.93614 9.4881C6.93178 6.67818 4.57672 6.40723 4.57672 3.52302C4.59298 2.58304 4.9743 1.68711 5.63857 1.02817C6.30285 0.369228 7.19692 0 8.12825 0C9.05958 0 9.95366 0.369228 10.6179 1.02817C11.2822 1.68711 11.6635 2.58304 11.6798 3.52302ZM9.66672 3.51756C9.66672 3.20965 9.57627 2.90865 9.40681 2.65263C9.23734 2.39662 8.99647 2.19707 8.71466 2.07924C8.43285 1.96141 8.12275 1.93058 7.82358 1.99065C7.52441 2.05072 7.24961 2.19899 7.03392 2.41672C6.81823 2.63444 6.67134 2.91184 6.61184 3.21384C6.55233 3.51583 6.58287 3.82885 6.6996 4.11333C6.81633 4.3978 7.014 4.64094 7.26763 4.81201C7.52125 4.98307 7.81943 5.07438 8.12446 5.07438C8.5335 5.07438 8.92578 4.91036 9.21501 4.61839C9.50424 4.32643 9.66672 3.93045 9.66672 3.51756Z" fill="black" fill-opacity="0.64"/>
</g>
</svg>
