<svg width="19" height="19" viewBox="0 0 19 19" fill="none" xmlns="http://www.w3.org/2000/svg">
<g id="dislike-svgrepo-com 1" clip-path="url(#clip0_1_8421)">
<path id="Vector" fill-rule="evenodd" clip-rule="evenodd" d="M6.84651 16.2483C6.84651 17.3806 7.96514 18.1354 8.83921 18.1354C9.44758 18.1354 9.49513 17.6727 9.58873 16.7616C9.63025 16.3616 9.68006 15.8755 9.79026 15.3048C10.0816 13.7937 11.0885 11.8629 12.0517 11.2855V6.81325C12.0547 5.11493 11.4886 4.54883 9.03546 4.54883H6.18757C4.54511 4.54883 4.14732 5.62971 3.99938 6.03127C3.99612 6.04033 3.99285 6.04939 3.98957 6.05844C3.90352 6.28941 3.71935 6.47057 3.508 6.67739C3.27401 6.90836 3.00681 7.17028 2.80829 7.56806C2.57355 8.0383 2.6045 8.45647 2.63242 8.82859C2.64978 9.05428 2.66563 9.2626 2.61959 9.45508C2.57128 9.65888 2.50939 9.81361 2.44976 9.96155C2.34182 10.2303 2.24219 10.4794 2.24219 10.9647C2.24219 12.0969 2.80678 12.8502 3.98957 12.8502H7.14844C7.14844 12.8502 6.84651 15.1161 6.84651 16.2483ZM14.6965 12.0969C14.9968 12.0969 15.2848 11.9776 15.4971 11.7653C15.7094 11.553 15.8287 11.265 15.8287 10.9647V5.68104C15.8287 5.38076 15.7094 5.09278 15.4971 4.88045C15.2848 4.66811 14.9968 4.54883 14.6965 4.54883C14.3962 4.54883 14.1083 4.66811 13.8959 4.88045C13.6836 5.09278 13.5643 5.38076 13.5643 5.68104V10.9647C13.5643 11.265 13.6836 11.553 13.8959 11.7653C14.1083 11.9776 14.3962 12.0969 14.6965 12.0969Z" fill="#5C5C5C"/>
</g>
<defs>
<clipPath id="clip0_1_8421">
<rect width="18.1154" height="18.1154" fill="white" transform="translate(0.734375 0.774414)"/>
</clipPath>
</defs>
</svg>
