<svg width="18" height="18" viewBox="0 0 18 18" fill="none" xmlns="http://www.w3.org/2000/svg">
<g id="like-svgrepo-com 1">
<path id="Vector" fill-rule="evenodd" clip-rule="evenodd" d="M11.5193 3.87138C11.5193 2.79308 10.454 2.07422 9.62153 2.07422C9.04212 2.07422 8.99684 2.51416 8.9077 3.38255C8.86816 3.76355 8.82071 4.2265 8.71576 4.76996C8.43828 6.20913 7.47931 8.04798 6.56204 8.59791V12.8572C6.55917 14.4746 7.09831 15.0138 9.43462 15.0138H12.1469C13.7111 15.0138 14.09 13.9836 14.2309 13.6019L14.2402 13.576C14.3222 13.3561 14.4976 13.1828 14.6989 12.9866C14.9217 12.7666 15.1762 12.5172 15.3653 12.1383C15.5888 11.6905 15.5593 11.2922 15.5328 10.9378C15.5162 10.7229 15.5011 10.5245 15.545 10.3412C15.591 10.1471 15.6499 9.9997 15.7067 9.8588C15.8095 9.60289 15.9044 9.36566 15.9044 8.90343C15.9044 7.82513 15.3667 7.10771 14.2402 7.10771H11.2318C11.2318 7.10771 11.5193 4.94968 11.5193 3.87138ZM4.04314 7.82513C3.75716 7.82513 3.48289 7.93874 3.28067 8.14096C3.07845 8.34318 2.96484 8.61745 2.96484 8.90343V13.9355C2.96484 14.2215 3.07845 14.4957 3.28067 14.698C3.48289 14.9002 3.75716 15.0138 4.04314 15.0138C4.32912 15.0138 4.60339 14.9002 4.80561 14.698C5.00783 14.4957 5.12144 14.2215 5.12144 13.9355V8.90343C5.12144 8.61745 5.00783 8.34318 4.80561 8.14096C4.60339 7.93874 4.32912 7.82513 4.04314 7.82513Z" fill="#5C5C5C"/>
</g>
</svg>
