<svg width="15" height="15" viewBox="0 0 15 15" fill="none" xmlns="http://www.w3.org/2000/svg">
<g clip-path="url(#clip0_1_8443)">
<path d="M14.9751 5.68992C14.9193 5.52328 14.7749 5.40188 14.6012 5.37516L9.99014 4.67062L7.92413 0.269531C7.84678 0.105 7.68132 0 7.49968 0C7.31803 0 7.1528 0.105 7.07522 0.269531L5.00921 4.67062L0.398113 5.37539C0.224441 5.40188 0.0803006 5.52352 0.024285 5.69016C-0.0314962 5.85656 0.0104569 6.04031 0.133269 6.16617L3.48343 9.60141L2.69171 14.4539C2.66264 14.6311 2.73741 14.8095 2.88436 14.9126C2.96499 14.9695 3.05944 14.9984 3.15413 14.9984C3.23194 14.9984 3.31022 14.9787 3.381 14.9398L7.49944 12.6619L11.6179 14.9398C11.6887 14.9787 11.7669 14.9984 11.8448 14.9984C11.9394 14.9984 12.0341 14.9695 12.1145 14.9126C12.2615 14.8095 12.3362 14.6311 12.3072 14.4539L11.5155 9.60141L14.8656 6.16617C14.9887 6.04008 15.0308 5.85633 14.9751 5.68992Z" fill="#00A86B"/>
</g>
<defs>
<clipPath id="clip0_1_8443">
<rect width="15" height="15" fill="white"/>
</clipPath>
</defs>
</svg>
