<svg width="9" height="11" viewBox="0 0 9 11" fill="none" xmlns="http://www.w3.org/2000/svg">
<path id="Vector" d="M7.0109 1.19709C6.2126 0.399137 5.16659 0 4.12024 0C3.07421 0 2.02785 0.399137 1.22958 1.19709C-0.0427035 2.46937 -0.374036 4.41036 0.454123 5.89948C1.40446 7.60781 4.12024 11 4.12024 11C4.12024 11 6.83634 7.60781 7.78668 5.89948C8.61481 4.41033 8.28348 2.46937 7.0109 1.19709ZM4.12024 6.57087C2.74926 6.57087 1.63744 5.45905 1.63744 4.08841C1.63744 2.71644 2.74926 1.60463 4.12024 1.60463C5.49154 1.60463 6.60336 2.71644 6.60336 4.08841C6.60336 5.45905 5.49154 6.57087 4.12024 6.57087Z" fill="#00A86B"/>
</svg>
