<svg width="80" height="14" viewBox="0 0 80 14" fill="none" xmlns="http://www.w3.org/2000/svg">
<path fill-rule="evenodd" clip-rule="evenodd" d="M6.67587 1.4336C6.82722 0.976478 7.47384 0.97648 7.62519 1.4336L8.72507 4.75554C8.79283 4.9602 8.98414 5.09838 9.19973 5.09838H12.7386C13.2252 5.09838 13.4251 5.72298 13.0288 6.00549L10.1822 8.03515C10.0037 8.16245 9.92892 8.39124 9.99785 8.59942L11.089 11.8951C11.241 12.3541 10.7178 12.7401 10.3241 12.4594L7.4408 10.4037C7.2671 10.2799 7.03396 10.2799 6.86027 10.4037L3.97727 12.4593C3.58358 12.74 3.06036 12.3541 3.21234 11.8951L4.30351 8.59943C4.37243 8.39125 4.29767 8.16245 4.11911 8.03515L1.27233 6.0055C0.876081 5.72299 1.07595 5.09838 1.56259 5.09838H5.10133C5.31692 5.09838 5.50823 4.9602 5.57599 4.75554L6.67587 1.4336Z" fill="#FFDB1F"/>
<path fill-rule="evenodd" clip-rule="evenodd" d="M22.9767 1.4336C23.128 0.976478 23.7746 0.97648 23.926 1.4336L25.0258 4.75554C25.0936 4.9602 25.2849 5.09838 25.5005 5.09838H29.0393C29.526 5.09838 29.7258 5.72298 29.3296 6.00549L26.483 8.03515C26.3045 8.16245 26.2297 8.39124 26.2986 8.59942L27.3898 11.8951C27.5418 12.3541 27.0186 12.7401 26.6249 12.4594L23.7416 10.4037C23.5679 10.2799 23.3347 10.2799 23.161 10.4037L20.2781 12.4593C19.8844 12.74 19.3611 12.3541 19.5131 11.8951L20.6043 8.59943C20.6732 8.39125 20.5984 8.16245 20.4199 8.03515L17.5731 6.0055C17.1769 5.72299 17.3767 5.09838 17.8634 5.09838H21.4021C21.6177 5.09838 21.809 4.9602 21.8768 4.75554L22.9767 1.4336Z" fill="#FFDB1F"/>
<path fill-rule="evenodd" clip-rule="evenodd" d="M39.2774 1.4336C39.4288 0.976478 40.0754 0.97648 40.2268 1.4336L41.3266 4.75554C41.3944 4.9602 41.5857 5.09838 41.8013 5.09838H45.3401C45.8268 5.09838 46.0266 5.72298 45.6304 6.00549L42.7838 8.03515C42.6052 8.16245 42.5305 8.39124 42.5994 8.59942L43.6906 11.8951C43.8426 12.3541 43.3194 12.7401 42.9257 12.4594L40.0424 10.4037C39.8687 10.2799 39.6355 10.2799 39.4618 10.4037L36.5788 12.4593C36.1851 12.74 35.6619 12.3541 35.8139 11.8951L36.9051 8.59943C36.974 8.39125 36.8992 8.16245 36.7207 8.03515L33.8739 6.0055C33.4776 5.72299 33.6775 5.09838 34.1642 5.09838H37.7029C37.9185 5.09838 38.1098 4.9602 38.1776 4.75554L39.2774 1.4336Z" fill="#FFDB1F"/>
<path fill-rule="evenodd" clip-rule="evenodd" d="M55.5782 1.4336C55.7296 0.976478 56.3762 0.97648 56.5275 1.4336L57.6274 4.75554C57.6952 4.9602 57.8865 5.09838 58.1021 5.09838H61.6409C62.1275 5.09838 62.3274 5.72298 61.9312 6.00549L59.0846 8.03515C58.906 8.16245 58.8313 8.39124 58.9002 8.59942L59.9914 11.8951C60.1434 12.3541 59.6202 12.7401 59.2265 12.4594L56.3431 10.4037C56.1694 10.2799 55.9363 10.2799 55.7626 10.4037L52.8796 12.4593C52.4859 12.74 51.9627 12.3541 52.1147 11.8951L53.2058 8.59943C53.2748 8.39125 53.2 8.16245 53.0215 8.03515L50.1747 6.0055C49.7784 5.72299 49.9783 5.09838 50.4649 5.09838H54.0037C54.2193 5.09838 54.4106 4.9602 54.4783 4.75554L55.5782 1.4336Z" fill="#FFDB1F"/>
<path fill-rule="evenodd" clip-rule="evenodd" d="M71.879 1.4336C72.0303 0.976478 72.677 0.97648 72.8283 1.4336L73.9282 4.75554C73.996 4.9602 74.1873 5.09838 74.4029 5.09838H77.9417C78.4283 5.09838 78.6282 5.72298 78.232 6.00549L75.3854 8.03515C75.2068 8.16245 75.132 8.39124 75.201 8.59942L76.2922 11.8951C76.4441 12.3541 75.9209 12.7401 75.5273 12.4594L72.6439 10.4037C72.4702 10.2799 72.2371 10.2799 72.0634 10.4037L69.1804 12.4593C68.7867 12.74 68.2635 12.3541 68.4155 11.8951L69.5066 8.59943C69.5756 8.39125 69.5008 8.16245 69.3222 8.03515L66.4755 6.0055C66.0792 5.72299 66.2791 5.09838 66.7657 5.09838H70.3045C70.52 5.09838 70.7114 4.9602 70.7791 4.75554L71.879 1.4336Z" fill="#979797"/>
</svg>
