<svg width="344" height="346" viewBox="0 0 344 346" fill="none" xmlns="http://www.w3.org/2000/svg">
<path opacity="0.7" d="M68.5193 299.719C125.235 330.679 217.19 330.686 273.905 299.719C330.621 268.752 330.621 218.541 273.905 187.574C217.19 156.607 125.235 156.607 68.5193 187.574C11.8036 218.541 11.7968 268.752 68.5193 299.719Z" fill="#F0F0F0"/>
<path d="M103.387 230.249C125.04 230.249 142.593 221.828 142.593 211.44C142.593 201.053 125.04 192.632 103.387 192.632C81.7345 192.632 64.1814 201.053 64.1814 211.44C64.1814 221.828 81.7345 230.249 103.387 230.249Z" fill="#E0E0E0"/>
<path d="M54.1172 210.216L58.5239 207.683C58.5239 207.683 60.6413 195.961 59.0601 185.885C56.8327 171.713 47.2495 166.827 43.7709 168.232C40.2924 169.637 39.4743 173.837 45.7577 182.024C49.4975 186.84 54.241 197.068 54.1172 210.216Z" fill="#00A86B"/>
<g opacity="0.1">
<path d="M54.1172 210.216L58.5239 207.683C58.5239 207.683 60.6413 195.961 59.0601 185.885C56.8327 171.713 47.2495 166.827 43.7709 168.232C40.2924 169.637 39.4743 173.837 45.7577 182.024C49.4975 186.84 54.241 197.068 54.1172 210.216Z" fill="white"/>
</g>
<path d="M55.719 204.59H55.6846C55.6025 204.577 55.5287 204.531 55.4788 204.464C55.4288 204.397 55.4065 204.314 55.4165 204.23C57.2245 190.992 51.9242 176.46 45.9708 170.578C45.9142 170.519 45.8828 170.44 45.8831 170.357C45.8833 170.275 45.9153 170.196 45.9723 170.137C46.0292 170.078 46.1067 170.043 46.1885 170.04C46.2702 170.037 46.3499 170.067 46.4107 170.122C52.4741 176.087 57.8776 190.882 56.0352 204.32C56.0236 204.396 55.9852 204.465 55.9272 204.515C55.8691 204.564 55.7951 204.591 55.719 204.59Z" fill="white"/>
<path d="M41.8941 217.33C41.2066 217.731 39.7629 216.852 39.213 216.479C38.2707 215.832 37.5086 214.953 36.9993 213.925C36.4348 212.757 36.2427 211.443 36.4494 210.161C36.5594 209.483 36.718 208.815 36.9237 208.161L37.4806 206.216C37.7029 205.589 37.7987 204.923 37.7624 204.258C37.5906 202.929 36.3875 201.995 35.3563 201.192C34.1739 200.307 32.9502 199.116 32.9571 197.532C33.0363 196.293 33.5197 195.116 34.332 194.182C35.0882 193.214 35.9888 192.362 36.6762 191.338C37.215 190.625 37.4984 189.75 37.4806 188.854C37.4039 188.304 37.2193 187.775 36.9375 187.297C36.2934 186.306 35.7301 185.265 35.2532 184.183C34.8613 183.062 34.9163 181.671 35.7894 180.868C36.1782 180.573 36.622 180.36 37.0945 180.241C37.5669 180.122 38.0582 180.1 38.5393 180.176C39.4425 180.284 40.311 180.591 41.0829 181.076C43.6059 182.46 45.0495 185.491 47.7237 186.612C48.7888 186.941 49.8723 187.207 50.9686 187.408C51.5129 187.509 52.0301 187.724 52.4871 188.039C52.9441 188.354 53.3307 188.761 53.6222 189.235C54.6052 191.214 52.7835 193.643 53.4778 195.746C54.0897 197.601 55.8771 198.307 56.9151 199.981C57.3229 200.721 57.4867 201.571 57.3826 202.41C57.2992 203.831 56.9566 205.225 56.372 206.521C55.7156 207.806 54.9666 209.041 54.1309 210.216C54.0759 210.258 41.9972 217.288 41.8941 217.33Z" fill="#00A86B"/>
<path d="M49.0437 213.489C49.0024 213.488 48.9618 213.479 48.9241 213.462C48.8865 213.445 48.8526 213.421 48.8244 213.39C48.7962 213.36 48.7743 213.324 48.76 213.285C48.7457 213.246 48.7393 213.205 48.7412 213.164C49.2568 200.604 43.379 186.743 39.1167 182.716C39.0869 182.687 39.0629 182.654 39.0461 182.616C39.0293 182.579 39.02 182.538 39.0187 182.497C39.0174 182.456 39.0242 182.415 39.0387 182.376C39.0531 182.338 39.075 182.303 39.103 182.273C39.1309 182.243 39.1645 182.218 39.2018 182.202C39.239 182.185 39.2792 182.175 39.3201 182.174C39.361 182.173 39.4017 182.18 39.4399 182.194C39.4781 182.209 39.5131 182.231 39.5429 182.259C43.9014 186.362 49.903 200.458 49.3736 213.184C49.3728 213.226 49.3635 213.268 49.3463 213.306C49.329 213.345 49.3042 213.379 49.2734 213.408C49.2425 213.436 49.2063 213.458 49.1668 213.472C49.1273 213.486 49.0854 213.492 49.0437 213.489Z" fill="white"/>
<path d="M47.1806 198.659H47.0844C44.1284 197.839 41.0926 197.345 38.0305 197.185C37.9555 197.174 37.887 197.136 37.8375 197.078C37.788 197.021 37.7607 196.947 37.7607 196.871C37.7607 196.794 37.788 196.72 37.8375 196.663C37.887 196.605 37.9555 196.567 38.0305 196.556C41.1459 196.716 44.2347 197.218 47.2425 198.05C47.3147 198.073 47.3767 198.12 47.4172 198.184C47.4577 198.248 47.4741 198.325 47.4633 198.4C47.4525 198.476 47.4152 198.545 47.3584 198.595C47.3015 198.645 47.2286 198.673 47.1531 198.673L47.1806 198.659Z" fill="white"/>
<path d="M269.327 274.108C271.699 268.918 280.327 259.894 288.748 255.632C297.17 251.369 307.818 250.331 312.857 255.147C317.546 259.631 313.593 266.697 304.608 268.447C295.623 270.198 282.705 271.624 275.899 278.668L264.962 286.114L269.327 274.108Z" fill="#00A86B"/>
<path opacity="0.1" d="M269.327 274.108C271.699 268.918 280.327 259.894 288.748 255.632C297.17 251.369 307.818 250.331 312.857 255.147C317.546 259.631 313.593 266.697 304.608 268.447C295.623 270.198 282.705 271.624 275.899 278.668L264.962 286.114L269.327 274.108Z" fill="white"/>
<path d="M265.711 281.028C265.796 281.059 265.889 281.062 265.976 281.036C266.063 281.009 266.139 280.956 266.193 280.882C277.721 264.766 298.503 256.953 308.485 257.707C308.595 257.715 308.704 257.679 308.788 257.606C308.871 257.534 308.923 257.431 308.932 257.32C308.936 257.265 308.929 257.211 308.911 257.159C308.894 257.107 308.867 257.059 308.831 257.018C308.795 256.977 308.752 256.943 308.703 256.919C308.654 256.895 308.601 256.88 308.547 256.877C298.386 256.102 277.219 264.032 265.519 280.405C265.487 280.449 265.464 280.5 265.452 280.553C265.44 280.606 265.438 280.662 265.447 280.716C265.456 280.77 265.475 280.822 265.504 280.868C265.533 280.914 265.571 280.955 265.615 280.986C265.644 281.006 265.677 281.02 265.711 281.028Z" fill="white"/>
<path d="M263.168 293.574C265.326 291.041 271.06 287.865 278.594 286.536C286.933 285.062 295.863 286.744 299.273 284.177C303.364 281.09 301.693 275.617 294.825 273.423C287.958 271.229 272.442 274.876 264.481 287.477L263.168 293.574Z" fill="#00A86B"/>
<path d="M263.298 289.948C263.374 289.976 263.455 289.98 263.534 289.962C263.612 289.944 263.683 289.903 263.738 289.844C276.051 277.167 289.979 277.16 295.623 278.924C295.675 278.94 295.729 278.946 295.783 278.941C295.837 278.935 295.89 278.919 295.938 278.894C295.986 278.868 296.028 278.833 296.062 278.791C296.097 278.749 296.123 278.7 296.138 278.648C296.155 278.596 296.162 278.541 296.157 278.487C296.153 278.432 296.138 278.379 296.113 278.331C296.088 278.283 296.054 278.24 296.012 278.205C295.97 278.17 295.922 278.144 295.87 278.129C289.628 276.177 275.714 276.322 263.14 289.263C263.102 289.301 263.071 289.347 263.05 289.398C263.03 289.448 263.019 289.502 263.019 289.557C263.019 289.612 263.03 289.666 263.05 289.716C263.071 289.767 263.102 289.812 263.14 289.851C263.185 289.895 263.239 289.928 263.298 289.948Z" fill="white"/>
<path d="M138.345 228.519L146.416 233.204L143.728 234.768H154.48V228.519L151.792 230.083L143.728 225.392L138.345 228.519Z" fill="#00A86B"/>
<path d="M159.175 238.166C159.059 238.166 158.945 238.135 158.845 238.076L156.838 236.906C156.692 236.813 156.586 236.668 156.541 236.5C156.497 236.332 156.517 236.153 156.597 236C156.688 235.85 156.833 235.741 157.002 235.694C157.17 235.648 157.35 235.668 157.504 235.75L159.512 236.92C159.624 237.003 159.708 237.118 159.753 237.25C159.799 237.381 159.804 237.524 159.768 237.659C159.731 237.794 159.655 237.914 159.549 238.005C159.443 238.095 159.313 238.151 159.175 238.166Z" fill="#00A86B"/>
<path d="M243.754 287.318C243.638 287.319 243.524 287.288 243.424 287.228L239.553 284.979C239.442 284.871 239.371 284.727 239.351 284.573C239.331 284.418 239.363 284.261 239.443 284.128C239.522 283.994 239.644 283.891 239.789 283.836C239.934 283.781 240.093 283.776 240.241 283.824L244.104 286.073C244.216 286.155 244.3 286.269 244.346 286.401C244.392 286.532 244.397 286.674 244.362 286.809C244.326 286.943 244.251 287.064 244.146 287.155C244.041 287.246 243.912 287.303 243.774 287.318H243.754ZM234.356 281.851C234.241 281.852 234.127 281.823 234.026 281.768L230.156 279.519C230.057 279.488 229.966 279.434 229.891 279.362C229.816 279.29 229.758 279.202 229.721 279.105C229.684 279.007 229.67 278.902 229.679 278.798C229.688 278.694 229.721 278.594 229.774 278.504C229.827 278.415 229.9 278.339 229.987 278.281C230.073 278.224 230.172 278.187 230.275 278.174C230.378 278.16 230.482 278.17 230.58 278.203C230.679 278.236 230.769 278.291 230.843 278.364L234.713 280.613C234.823 280.696 234.905 280.811 234.949 280.942C234.993 281.072 234.997 281.213 234.961 281.347C234.925 281.48 234.85 281.599 234.746 281.689C234.641 281.779 234.513 281.836 234.377 281.851H234.356ZM224.958 276.392C224.842 276.392 224.728 276.361 224.628 276.302L220.758 274.032C220.612 273.939 220.506 273.794 220.462 273.626C220.417 273.458 220.437 273.279 220.517 273.125C220.61 272.977 220.755 272.869 220.924 272.824C221.092 272.779 221.271 272.8 221.425 272.883L225.295 275.132C225.405 275.216 225.486 275.33 225.531 275.461C225.575 275.592 225.579 275.733 225.543 275.866C225.506 275.999 225.431 276.119 225.327 276.208C225.223 276.298 225.095 276.355 224.958 276.371V276.392ZM215.561 270.932C215.445 270.932 215.331 270.901 215.231 270.842L211.36 268.593C211.214 268.5 211.109 268.355 211.064 268.187C211.02 268.019 211.039 267.84 211.12 267.686C211.211 267.536 211.356 267.427 211.525 267.381C211.693 267.335 211.873 267.355 212.027 267.437L215.891 269.686C216.002 269.768 216.087 269.883 216.132 270.014C216.178 270.145 216.184 270.288 216.148 270.422C216.113 270.557 216.037 270.677 215.933 270.768C215.828 270.859 215.698 270.916 215.561 270.932ZM206.163 265.472C206.047 265.472 205.933 265.441 205.833 265.382L201.963 263.133C201.852 263.024 201.78 262.881 201.76 262.726C201.74 262.572 201.773 262.415 201.852 262.281C201.932 262.147 202.054 262.045 202.199 261.989C202.343 261.934 202.503 261.93 202.65 261.977L206.521 264.226C206.668 264.319 206.775 264.466 206.82 264.635C206.865 264.805 206.844 264.985 206.761 265.14C206.699 265.243 206.611 265.327 206.506 265.386C206.401 265.444 206.283 265.474 206.163 265.472ZM196.766 260.012C196.65 260.01 196.536 259.979 196.436 259.922L192.565 257.673C192.466 257.641 192.376 257.588 192.301 257.516C192.225 257.444 192.167 257.356 192.13 257.258C192.094 257.161 192.079 257.056 192.089 256.952C192.098 256.848 192.13 256.747 192.184 256.658C192.237 256.568 192.31 256.492 192.396 256.435C192.483 256.378 192.581 256.341 192.684 256.327C192.787 256.314 192.892 256.324 192.99 256.357C193.088 256.39 193.178 256.445 193.253 256.517L197.123 258.766C197.269 258.859 197.375 259.004 197.419 259.172C197.464 259.34 197.444 259.519 197.364 259.673C197.302 259.777 197.215 259.863 197.11 259.923C197.005 259.982 196.886 260.013 196.766 260.012ZM187.368 254.545C187.253 254.546 187.139 254.517 187.038 254.462L183.168 252.213C183.056 252.104 182.985 251.961 182.965 251.807C182.945 251.652 182.977 251.495 183.057 251.361C183.136 251.228 183.259 251.125 183.403 251.07C183.548 251.015 183.707 251.01 183.855 251.057L187.725 253.306C187.835 253.39 187.917 253.504 187.961 253.635C188.005 253.766 188.009 253.907 187.973 254.04C187.937 254.174 187.862 254.293 187.757 254.383C187.653 254.473 187.525 254.529 187.389 254.545H187.368ZM177.97 249.12C177.854 249.12 177.74 249.089 177.64 249.03L173.77 246.781C173.624 246.688 173.518 246.543 173.474 246.375C173.429 246.207 173.449 246.028 173.529 245.874C173.621 245.724 173.766 245.615 173.934 245.569C174.103 245.523 174.282 245.543 174.437 245.625L178.307 247.874C178.419 247.957 178.503 248.072 178.549 248.204C178.594 248.336 178.599 248.478 178.563 248.613C178.526 248.748 178.45 248.869 178.345 248.959C178.239 249.049 178.108 249.105 177.97 249.12ZM168.573 243.66C168.457 243.66 168.343 243.629 168.243 243.57L164.372 241.321C164.261 241.212 164.19 241.069 164.17 240.914C164.15 240.76 164.182 240.603 164.262 240.469C164.341 240.336 164.463 240.233 164.608 240.178C164.753 240.122 164.912 240.118 165.06 240.165L168.93 242.414C169.078 242.508 169.185 242.654 169.229 242.823C169.274 242.993 169.253 243.173 169.171 243.328C169.104 243.424 169.015 243.502 168.91 243.554C168.805 243.607 168.689 243.631 168.573 243.625V243.66Z" fill="#00A86B"/>
<path d="M251.288 291.692C251.173 291.692 251.059 291.664 250.958 291.609L248.951 290.439C248.805 290.346 248.699 290.201 248.654 290.033C248.61 289.865 248.63 289.687 248.71 289.533C248.802 289.383 248.946 289.274 249.115 289.228C249.283 289.181 249.463 289.201 249.617 289.284L251.618 290.453C251.727 290.536 251.809 290.65 251.854 290.78C251.898 290.911 251.903 291.051 251.867 291.184C251.832 291.317 251.758 291.437 251.655 291.527C251.551 291.617 251.424 291.675 251.288 291.692Z" fill="#00A86B"/>
<path d="M295.128 117.169L294.509 116.809L275.301 105.737C270.857 102.778 265.629 101.237 260.301 101.315C253.584 101.315 246.806 103.765 238.824 108.235C210.934 123.792 187.107 168.647 187.107 198.098V206.216C187.107 241.909 233.744 285.477 233.744 285.477L253.082 296.722C253.091 296.735 253.104 296.746 253.119 296.752C253.133 296.758 253.149 296.76 253.165 296.757C252.519 295.989 273.713 264.863 293.725 204.147C315.82 136.912 295.54 117.557 295.128 117.169ZM262.487 223.889C246.675 233.072 233.455 228.263 229.709 213.447C222.47 212.444 217.238 206.838 215.623 197.635C213.595 167.879 229.283 144.219 251.749 134.614C261.373 131.092 269.403 133.604 273.706 140.884C286.906 138.6 296.351 147.707 296.351 164.855C296.351 186.584 281.172 213.032 262.487 223.889Z" fill="#455A64"/>
<path d="M296.351 164.855C296.351 186.584 281.193 213.032 262.487 223.889C246.675 233.072 233.455 228.263 229.709 213.447C234.459 214.139 240.069 212.859 246.098 209.35C263.229 199.406 277.102 175.2 277.102 155.312C277.102 149.402 275.879 144.538 273.706 140.884C286.906 138.6 296.351 147.707 296.351 164.855Z" fill="#263238"/>
<path d="M295.128 117.169L294.509 116.81C285.187 111.537 272.73 112.242 259.043 120.187C238.419 132.193 220.545 157.409 212.096 183.851C208.741 194.334 207.325 199.884 207.325 210.022V218.167C207.325 245.674 237.793 282.675 252.044 295.885C252.363 296.183 252.711 296.447 253.082 296.674C253.091 296.687 253.104 296.698 253.119 296.704C253.133 296.71 253.149 296.712 253.165 296.709C253.997 297.226 254.927 297.562 255.896 297.695C256.865 297.828 257.85 297.756 258.79 297.482C259.729 297.208 260.601 296.739 261.349 296.105C262.097 295.472 262.705 294.687 263.133 293.802C275.411 268.496 311.214 192.203 311.214 162.62V154.503C311.214 136.165 305.055 123.176 295.128 117.169ZM229.709 213.447C229.516 212.693 229.337 211.904 229.2 211.095C228.797 208.825 228.603 206.522 228.623 204.216C228.623 182.487 243.747 156.046 262.487 145.189C264.463 144.036 266.533 143.055 268.674 142.254C270.309 141.642 271.996 141.179 273.713 140.87C286.912 138.587 296.358 147.694 296.358 164.841C296.358 186.57 281.2 213.018 262.494 223.876C246.696 233.073 233.455 228.263 229.709 213.447Z" fill="#37474F"/>
<path d="M124.156 88.285H109.719C106.587 88.285 103.583 87.0325 101.368 84.803C99.1528 82.5734 97.9084 79.5495 97.9084 76.3965V73.0403C97.9084 69.5385 99.2904 66.1802 101.75 63.7041C104.21 61.228 107.546 59.8369 111.025 59.8369C114.504 59.8369 117.84 61.228 120.3 63.7041C122.76 66.1802 124.142 69.5385 124.142 73.0403L124.156 88.285Z" fill="#263238"/>
<path d="M100.005 66.4659L96.9321 64.8259C97.0292 64.6196 97.1669 64.4353 97.3367 64.2841C97.5066 64.1328 97.7052 64.0178 97.9204 63.946C98.1357 63.8742 98.3632 63.8471 98.5891 63.8663C98.8151 63.8855 99.0349 63.9507 99.2351 64.0578C99.6461 64.2829 99.9553 64.6585 100.099 65.1068C100.242 65.5552 100.209 66.0418 100.005 66.4659Z" fill="#263238"/>
<path d="M100.259 66.8121L97.0284 68.03C96.9383 67.8207 96.8913 67.5952 96.8902 67.3671C96.889 67.139 96.9338 66.9131 97.0219 66.7029C97.1099 66.4927 97.2393 66.3027 97.4023 66.1442C97.5653 65.9858 97.7585 65.8622 97.9702 65.781C98.4104 65.6268 98.8926 65.6476 99.3181 65.8392C99.7436 66.0309 100.08 66.3789 100.259 66.8121Z" fill="#263238"/>
<path d="M128.94 105.135L132.914 112.463L127.394 117.231L121.873 108.616L128.94 105.135Z" fill="#9A4A4D"/>
<path d="M117.831 89.4131C119.893 89.593 122.066 90.4857 123.558 93.5651L129.745 106.353C129.745 106.353 128.7 110.561 123.255 111.121L121.097 107.786L117.831 89.4131Z" fill="#00A86B"/>
<path opacity="0.1" d="M117.831 89.4131C119.893 89.593 122.066 90.4857 123.558 93.5651L129.745 106.353C129.745 106.353 128.7 110.561 123.255 111.121L121.097 107.786L117.831 89.4131Z" fill="white"/>
<path d="M81.1206 190.023C80.0825 189.483 79.4294 190.805 78.4876 191.871C77.8001 192.611 76.8033 193.795 76.6521 194.639C76.4252 195.898 77.5527 197.871 78.797 198.964C80.0413 200.057 81.4849 200.832 81.9387 203.22C82.3924 205.607 83.3136 207.026 85.7747 208.098C88.4696 209.268 92.0787 208.894 93.3024 208.098C94.753 207.15 93.4262 206.119 91.3981 203.192C88.7445 199.372 86.6753 196.639 86.6753 193.075L81.1206 190.023Z" fill="#263238"/>
<path d="M83.2449 186.888L81.0656 190.105C80.605 190.773 80.4246 191.597 80.5636 192.397C80.7026 193.198 81.1498 193.911 81.8081 194.382L81.8768 194.43C82.5383 194.83 83.3179 194.984 84.0802 194.865C84.8425 194.746 85.5394 194.362 86.0497 193.78L89.4458 190.043L83.2449 186.888Z" fill="#B16668"/>
<path d="M122.41 125.888C122.547 129.985 123.262 144.918 120.292 152.758C118.645 157.21 116.573 161.49 114.105 165.54C113.218 167.069 87.7341 192.043 87.7341 192.043C87.7341 192.043 83.403 191.725 82.7156 187.504C82.7156 187.504 93.1581 169.629 95.4199 165.969C97.6816 162.308 105.691 156.682 105.691 156.682L104.962 122.324L122.41 125.888Z" fill="#37474F"/>
<path d="M117.638 211.445L123.027 210.212L121.242 202.31L115.853 203.544L117.638 211.445Z" fill="#B16668"/>
<path d="M113.431 138.4C115.277 136.684 116.93 134.77 118.36 132.691C122.485 126.961 121.846 121.875 121.846 121.875H120.155L97.8741 122.332C95.6605 125.979 95.1793 131.508 95.9286 136.864C97.4754 148.04 106.674 167.381 106.674 167.381C106.543 168.91 105.904 175.332 107.361 181.027C109.65 190.023 115.879 205.247 115.879 205.247C115.879 205.247 119.777 205.808 121.715 203.538C121.715 203.538 118.278 172.668 117.336 164.786C116.312 156.191 113.431 138.4 113.431 138.4Z" fill="#37474F"/>
<path d="M122.423 207.531L122.245 206.756C122.815 206.867 125.235 210.908 127.634 212.666C130.26 214.589 132.543 215.724 133.718 216.596C135.286 217.752 133.031 220.132 129.147 220.34C127.229 220.444 123.736 219.855 122.657 218.831C121.578 217.807 120.801 216.063 119.948 215.371C119.096 214.679 117.364 213.987 116.779 213.039C116.463 212.52 116.408 211.226 116.449 210.119C116.49 209.012 116.511 207.988 116.862 208.001C116.862 208.119 116.992 208.597 116.992 208.597C118.007 209.113 119.135 209.363 120.272 209.323C121.179 209.268 122.87 209.053 122.423 207.531Z" fill="#263238"/>
<path d="M116.635 159.512C116.635 159.512 114.036 140.932 113.431 138.399C113.431 138.399 118.01 136.642 119.419 135.036C119.419 135.036 118.415 137.285 115.136 139.285L116.635 159.512Z" fill="#263238"/>
<path d="M102.872 158.793C102.872 158.793 105.553 165.872 106.667 167.401C106.667 167.401 106.385 172.668 106.426 173.733L104.975 175C104.975 175 104.907 170.578 105.663 167.9C104.339 165.001 103.4 161.939 102.872 158.793Z" fill="#263238"/>
<path d="M121.158 109.26C121.509 112.512 122.409 125.868 122.409 125.868C111.747 131.598 98.5202 127.798 96.499 125.439C97.554 121.545 99.6209 118.005 102.487 115.183L99.0495 105.495C99.0495 105.495 98.637 104.499 98.6439 104.492C98.857 104.132 104.013 99.4541 101.476 92.0359C101.387 91.7666 101.359 91.4803 101.396 91.1986C101.433 90.917 101.533 90.6476 101.688 90.4107C101.844 90.1739 102.052 89.9759 102.295 89.8318C102.538 89.6877 102.81 89.6014 103.092 89.5793L106.151 89.3302L114.456 89.0811C116.435 89.1987 117.852 89.3855 117.852 89.3855C119.123 90.5896 121.131 93.8766 122.43 97.2259C123.248 99.4126 124.156 102.866 121.158 109.26Z" fill="#00A86B"/>
<path opacity="0.1" d="M101.256 109.004L102.473 104.264L103.979 115.211L100.933 116.913L102.487 115.204L100.913 110.782L101.256 109.004Z" fill="white"/>
<path d="M119.467 65.5879C120.842 66.4114 122.568 69.9198 122.396 77.2689C122.251 83.4969 120.244 85.0469 119.24 85.4898C118.237 85.9327 116.291 85.6628 114.428 85.3445V89.0882C114.428 89.0882 117.24 94.3267 116.607 96.4165C115.232 96.6518 113.507 95.7245 111.066 94.0568C109.251 92.6919 107.603 91.1146 106.158 89.3581L106.199 80.7565C106.199 80.7565 105.085 81.843 103.202 80.1822C101.648 78.7982 101.139 76.5077 102.336 75.2621C102.65 74.9676 103.029 74.7526 103.442 74.6346C103.855 74.5167 104.29 74.4993 104.711 74.5837C105.132 74.6682 105.527 74.8522 105.863 75.1205C106.2 75.3889 106.468 75.7339 106.646 76.1271C106.646 76.1271 109.664 76.2447 113.672 74.0511C115.231 73.1985 116.568 71.9878 117.575 70.5173C118.582 69.0468 119.23 67.3579 119.467 65.5879Z" fill="#B16668"/>
<path d="M115.494 75.704C115.496 75.8591 115.453 76.0115 115.37 76.1422C115.287 76.2728 115.168 76.376 115.027 76.4387C114.886 76.5014 114.73 76.5208 114.578 76.4947C114.426 76.4685 114.285 76.3979 114.173 76.2916C114.061 76.1853 113.982 76.048 113.947 75.897C113.912 75.746 113.922 75.5879 113.975 75.4425C114.029 75.2971 114.124 75.1708 114.248 75.0795C114.373 74.9882 114.522 74.9358 114.675 74.929C114.886 74.9234 115.09 75.0017 115.243 75.1469C115.396 75.2921 115.486 75.4923 115.494 75.704Z" fill="#263238"/>
<g style="mix-blend-mode:multiply" opacity="0.5">
<path d="M115.693 80.9639L117.501 81.5451C117.468 81.6666 117.411 81.78 117.334 81.8789C117.256 81.9777 117.16 82.0599 117.05 82.1206C116.94 82.1812 116.82 82.2191 116.695 82.232C116.571 82.2449 116.445 82.2325 116.326 82.1956C116.082 82.1132 115.88 81.9385 115.762 81.7086C115.644 81.4787 115.619 81.2117 115.693 80.9639Z" fill="#9A4A4D"/>
</g>
<path d="M121.866 73.2963L120.306 72.203C120.371 72.0958 120.458 72.0033 120.56 71.9312C120.663 71.859 120.779 71.8087 120.901 71.7834C121.023 71.7582 121.15 71.7584 121.272 71.7841C121.394 71.8099 121.51 71.8606 121.612 71.9331C121.822 72.0826 121.966 72.3084 122.014 72.5629C122.061 72.8173 122.008 73.0804 121.866 73.2963Z" fill="#263238"/>
<path d="M121.502 75.1369C121.511 75.2416 121.498 75.347 121.465 75.4469C121.433 75.5467 121.381 75.639 121.312 75.7183C121.244 75.7976 121.16 75.8623 121.066 75.9086C120.973 75.9549 120.871 75.9819 120.767 75.988C120.605 76.0031 120.443 75.9691 120.301 75.8906C120.159 75.812 120.044 75.6925 119.97 75.5474C119.896 75.4022 119.867 75.2381 119.887 75.0762C119.906 74.9143 119.973 74.7621 120.08 74.639C120.186 74.516 120.327 74.4278 120.483 74.3859C120.64 74.3439 120.805 74.3501 120.958 74.4037C121.111 74.4573 121.245 74.5557 121.342 74.6864C121.439 74.8171 121.495 74.974 121.502 75.1369Z" fill="#263238"/>
<g style="mix-blend-mode:multiply" opacity="0.5">
<path d="M117.831 74.6943L117.955 79.4069L120.423 78.6387L117.831 74.6943Z" fill="#9A4A4D"/>
</g>
<g style="mix-blend-mode:multiply" opacity="0.5">
<path d="M114.401 85.3441C112.407 85.0811 108.31 83.8978 107.67 82.2646C107.928 83.0879 108.429 83.8122 109.107 84.3406C110.331 85.3925 114.401 86.5827 114.401 86.5827V85.3441Z" fill="#9A4A4D"/>
</g>
<path d="M89.9065 121.044C89.9546 120.352 91.2126 113.176 92.072 109.155L100.473 111.743L99.0978 117.383L92.1201 124.186C91.4181 124.054 90.7945 123.652 90.3814 123.066C89.9683 122.479 89.7979 121.754 89.9065 121.044Z" fill="#B16668"/>
<path d="M103.071 89.6064C99.8469 89.8902 95.5984 90.3746 93.5773 99.6128C91.6799 108.27 91.2124 111.294 91.2124 111.294C91.2124 111.294 93.6941 114.456 100.115 114.11L102.473 104.263C106.77 98.5678 105.388 94.492 103.071 89.6064Z" fill="#00A86B"/>
<path d="M130.233 114.345C131.388 112.186 131.677 112.09 132.357 111.577C133.038 111.065 137.259 110.47 139.005 110.325C141.067 110.152 141.789 110.533 141.219 112.311C139.995 116.117 136.283 124.2 135.451 125.321C134.908 126.013 134.798 126.705 132.488 126.954C130.329 127.168 127.621 127.286 126.823 127.334C126.026 127.383 124.926 127.583 125.641 125.224C126.55 122.555 127.604 119.937 128.796 117.383C129.683 115.473 130.233 114.345 130.233 114.345Z" fill="#263238"/>
<path d="M99.1251 117.383C99.1251 117.383 117.797 119.369 120.21 118.615C122.623 117.861 125.881 115.425 127.627 114.422C129.373 113.418 130.625 113.328 130.625 113.73C130.625 114.131 129.133 116.449 128.796 117.397C128.459 118.345 130.405 118.345 132.962 117.757C135.519 117.169 136.544 115.681 137.211 116.539C137.877 117.397 135.794 121.695 131.546 123.293C127.297 124.892 124.142 123.833 120.636 123.985C117.13 124.137 97.0146 125.715 92.1405 124.172C92.0174 123.391 92.1093 122.591 92.4062 121.859C92.7032 121.127 93.1938 120.491 93.8248 120.02C95.4008 118.797 97.2024 117.9 99.1251 117.383Z" fill="#B16668"/>
<path d="M218.468 50.3983L223.59 47.4227C223.562 47.214 223.548 47.0036 223.549 46.793V45.2983C223.626 43.8549 224.04 42.45 224.756 41.1974C225.473 39.9447 226.472 38.8794 227.674 38.0876C228.032 37.8447 228.435 37.6772 228.859 37.5951C229.283 37.5131 229.719 37.5182 230.142 37.6101C230.52 33.8318 233.118 29.5622 236.281 27.7284C239.718 25.7423 242.468 27.3478 242.468 31.3268V33.555C242.455 34.6411 242.279 35.719 241.945 36.7521L246.201 34.2816C247.466 33.5481 248.49 34.1432 248.49 35.6172C248.447 36.418 248.218 37.1974 247.82 37.8923C247.422 38.5872 246.867 39.178 246.201 39.6169L218.468 55.7336C217.204 56.4671 216.179 55.872 216.179 54.3981C216.222 53.5973 216.452 52.8179 216.849 52.123C217.247 51.4281 217.802 50.8373 218.468 50.3983Z" fill="#F0F0F0"/>
<path d="M193.947 85.0054L197.81 82.7564C197.788 82.5982 197.776 82.4387 197.776 82.2789V81.1579C197.835 80.0673 198.149 79.0061 198.691 78.06C199.233 77.1139 199.989 76.3095 200.897 75.7119C201.167 75.5279 201.472 75.4012 201.792 75.3393C202.112 75.2775 202.441 75.2818 202.76 75.352C202.951 73.8455 203.464 72.3985 204.264 71.1107C205.064 69.8229 206.132 68.7249 207.394 67.8923C209.971 66.3906 212.068 67.6085 212.068 70.6049V72.2934C212.057 73.1118 211.923 73.9237 211.67 74.7015L214.88 72.8401C215.836 72.2865 216.612 72.7363 216.612 73.8435C216.579 74.4489 216.405 75.0381 216.104 75.5634C215.803 76.0887 215.384 76.5354 214.88 76.8675L193.947 89.0259C192.991 89.5865 192.214 89.1367 192.214 88.0225C192.247 87.4179 192.421 86.8295 192.722 86.3052C193.023 85.781 193.442 85.3356 193.947 85.0054Z" fill="#F0F0F0"/>
<path fill-rule="evenodd" clip-rule="evenodd" d="M246.665 169.869C241.151 171.249 239.637 173.022 237.29 180.858C236.406 183.808 235.847 184.888 235.13 185.026C232.532 185.525 231.978 185.859 231.454 187.245C230.759 189.085 231.166 190.102 232.717 190.402L233.898 190.631L234.15 199.874C234.4 209.046 234.411 209.123 235.609 209.853C237.088 210.755 243.133 210.604 244.337 209.635C244.787 209.272 245.173 208.115 245.209 207.017L245.274 205.05L258.267 204.462L271.261 203.873L271.503 205.827C271.827 208.441 272.786 208.961 276.941 208.773C279.783 208.644 280.595 208.421 281.431 207.541C282.406 206.515 282.425 206.065 281.871 197.515L281.29 188.563L282.728 187.967C283.984 187.446 284.113 187.199 283.749 186.018C283.136 184.033 281.854 183.014 280.07 183.095C278.554 183.163 278.431 183.015 276.891 179.262C273.987 172.186 273.34 171.304 270.058 169.957C267.23 168.796 266.767 168.761 257.94 169.047C252.893 169.21 247.819 169.581 246.665 169.869ZM268.781 173.235C270.513 174.496 274.536 183.309 273.646 183.894C272.1 184.91 242.652 186.202 241.012 185.325C240.527 185.065 240.666 184.053 241.585 181.168C243.205 176.081 244.214 174.259 245.68 173.767C246.353 173.542 251.627 173.186 257.402 172.977C265.474 172.684 268.106 172.744 268.781 173.235ZM242.817 193.164C246.232 194.105 247.399 194.935 246.985 196.127C246.651 197.09 244.211 197.193 242.86 196.301C242.114 195.809 241.166 195.738 239.402 196.045L236.971 196.468L236.894 194.771C236.852 193.837 236.963 192.92 237.142 192.732C237.715 192.128 239.567 192.269 242.817 193.164ZM278.564 192.573L278.8 194.361L275.599 194.76C273.838 194.98 271.545 195.348 270.502 195.579C268.43 196.037 268.015 195.449 269.223 193.767C270.053 192.611 274.811 190.719 276.794 190.757C278.168 190.782 278.352 190.971 278.564 192.573Z" fill="#00A86B"/>
</svg>
