<svg width="246" height="246" viewBox="0 0 246 246" fill="none" xmlns="http://www.w3.org/2000/svg">
<path opacity="0.4" d="M172.405 19.5771H73.595C51.865 19.5771 34.03 37.4122 34.03 59.1422V203.565C34.03 222.015 47.2525 229.805 63.4475 220.887L113.468 193.11C118.798 190.137 127.408 190.137 132.635 193.11L182.655 220.887C198.85 229.907 212.073 222.117 212.073 203.565V59.1422C211.97 37.4122 194.238 19.5771 172.405 19.5771Z" fill="#00A86B"/>
<path d="M113.673 135.812C111.725 135.812 109.778 135.095 108.24 133.557L92.8651 118.182C89.8926 115.21 89.8926 110.29 92.8651 107.317C95.8376 104.345 100.758 104.345 103.73 107.317L113.673 117.26L149.24 81.6923C152.213 78.7198 157.133 78.7198 160.105 81.6923C163.078 84.6648 163.078 89.5848 160.105 92.5573L119.105 133.557C117.568 135.095 115.62 135.812 113.673 135.812Z" fill="#00A86B"/>
</svg>
