<svg width="20" height="20" viewBox="0 0 20 20" fill="none" xmlns="http://www.w3.org/2000/svg">
<g id="vuesax/bold/cards">
<g id="cards">
<path id="Vector" d="M12.6837 5.45801H4.81699C4.58366 5.45801 4.36699 5.46634 4.16699 5.47467C2.19199 5.59134 1.66699 6.31634 1.66699 8.56634V9.04967C1.66699 9.50801 2.04199 9.88301 2.50033 9.88301H15.0003C15.4587 9.88301 15.8337 9.50801 15.8337 9.04967V8.56634C15.8337 6.08301 15.2003 5.45801 12.6837 5.45801Z" fill="#151B33"/>
<path id="Vector_2" d="M2.50033 11.1338C2.04199 11.1338 1.66699 11.5088 1.66699 11.9671V14.3921C1.66699 16.8755 2.30033 17.5005 4.81699 17.5005H12.6837C15.1587 17.5005 15.8087 16.9005 15.8337 14.5255V11.9671C15.8337 11.5088 15.4587 11.1338 15.0003 11.1338H2.50033ZM5.80033 15.4671H4.37533C4.03366 15.4671 3.75033 15.1838 3.75033 14.8421C3.75033 14.5005 4.03366 14.2171 4.37533 14.2171H5.80866C6.15033 14.2171 6.43366 14.5005 6.43366 14.8421C6.43366 15.1838 6.15033 15.4671 5.80033 15.4671ZM10.4587 15.4671H7.59199C7.25033 15.4671 6.96699 15.1838 6.96699 14.8421C6.96699 14.5005 7.25033 14.2171 7.59199 14.2171H10.4587C10.8003 14.2171 11.0837 14.5005 11.0837 14.8421C11.0837 15.1838 10.8087 15.4671 10.4587 15.4671Z" fill="#151B33"/>
<path id="Vector_3" d="M18.3333 11.1083V6.74167C18.3333 4.13333 16.8417 3 14.5917 3H7.15001C6.51668 3 5.95001 3.09167 5.45001 3.28333C5.05834 3.425 4.70834 3.63333 4.42501 3.90833C4.27501 4.05 4.39168 4.28333 4.60834 4.28333H13.6667C15.5417 4.28333 17.0583 5.8 17.0583 7.675V13.65C17.0583 13.8583 17.2833 13.975 17.4333 13.825C18.0083 13.2167 18.3333 12.325 18.3333 11.1083Z" fill="#151B33"/>
</g>
</g>
</svg>
