<svg width="20" height="20" viewBox="0 0 20 20" fill="none" xmlns="http://www.w3.org/2000/svg">
<g id="vuesax/bold/card-add">
<g id="card-add">
<path id="Vector" d="M1.66699 9.55033V13.717C1.66699 15.6253 3.20866 17.167 5.11699 17.167H14.8753C16.7837 17.167 18.3337 15.617 18.3337 13.7087V9.55033C18.3337 8.99199 17.8837 8.54199 17.3253 8.54199H2.67533C2.11699 8.54199 1.66699 8.99199 1.66699 9.55033ZM6.66699 14.3753H5.00033C4.65866 14.3753 4.37533 14.092 4.37533 13.7503C4.37533 13.4087 4.65866 13.1253 5.00033 13.1253H6.66699C7.00866 13.1253 7.29199 13.4087 7.29199 13.7503C7.29199 14.092 7.00866 14.3753 6.66699 14.3753ZM12.0837 14.3753H8.75033C8.40866 14.3753 8.12533 14.092 8.12533 13.7503C8.12533 13.4087 8.40866 13.1253 8.75033 13.1253H12.0837C12.4253 13.1253 12.7087 13.4087 12.7087 13.7503C12.7087 14.092 12.4253 14.3753 12.0837 14.3753Z" fill="#151B33"/>
<path id="Vector_2" d="M11.2503 3.84134V6.28301C11.2503 6.84134 10.8003 7.29134 10.242 7.29134H2.67533C2.10866 7.29134 1.66699 6.82467 1.66699 6.26634C1.67533 5.32467 2.05033 4.46634 2.67533 3.84134C3.30033 3.21634 4.16699 2.83301 5.11699 2.83301H10.242C10.8003 2.83301 11.2503 3.28301 11.2503 3.84134Z" fill="#151B33"/>
<path id="Vector_3" d="M16.6417 1.66699H14.1917C13.1333 1.66699 12.5 2.30033 12.5 3.35866V5.80866C12.5 6.86699 13.1333 7.50033 14.1917 7.50033H16.6417C17.7 7.50033 18.3333 6.86699 18.3333 5.80866V3.35866C18.3333 2.30033 17.7 1.66699 16.6417 1.66699ZM17.425 4.94199C17.3417 5.02533 17.2167 5.08366 17.0833 5.09199H15.9083L15.9167 6.25033C15.9083 6.39199 15.8583 6.50866 15.7583 6.60866C15.675 6.69199 15.55 6.75033 15.4167 6.75033C15.1417 6.75033 14.9167 6.52533 14.9167 6.25033V5.08366L13.75 5.09199C13.475 5.09199 13.25 4.85866 13.25 4.58366C13.25 4.30866 13.475 4.08366 13.75 4.08366L14.9167 4.09199V2.92533C14.9167 2.65033 15.1417 2.41699 15.4167 2.41699C15.6917 2.41699 15.9167 2.65033 15.9167 2.92533L15.9083 4.08366H17.0833C17.3583 4.08366 17.5833 4.30866 17.5833 4.58366C17.575 4.72533 17.5167 4.84199 17.425 4.94199Z" fill="#151B33"/>
</g>
</g>
</svg>
