<svg width="20" height="20" viewBox="0 0 20 20" fill="none" xmlns="http://www.w3.org/2000/svg">
<path d="M12.5 18.3337C12.1583 18.3337 11.875 18.0503 11.875 17.7087V2.29199C11.875 1.95033 12.1583 1.66699 12.5 1.66699C12.8417 1.66699 13.125 1.95033 13.125 2.29199V17.7087C13.125 18.0503 12.8417 18.3337 12.5 18.3337Z" fill="#151B33"/>
<path d="M15 16.6663H12.5V3.33301H15C16.8417 3.33301 18.3333 4.82467 18.3333 6.66634V13.333C18.3333 15.1747 16.8417 16.6663 15 16.6663Z" fill="#151B33"/>
<path d="M5.00002 3.33301C3.15835 3.33301 1.66669 4.82467 1.66669 6.66634V13.333C1.66669 15.1747 3.15835 16.6663 5.00002 16.6663H9.16669C9.62502 16.6663 10 16.2913 10 15.833V4.16634C10 3.70801 9.62502 3.33301 9.16669 3.33301H5.00002ZM6.45835 12.9163C6.45835 13.258 6.17502 13.5413 5.83335 13.5413C5.49169 13.5413 5.20835 13.258 5.20835 12.9163V7.08301C5.20835 6.74134 5.49169 6.45801 5.83335 6.45801C6.17502 6.45801 6.45835 6.74134 6.45835 7.08301V12.9163Z" fill="#151B33"/>
<path d="M2.16669 6.66634C2.16669 5.10082 3.4345 3.83301 5.00002 3.83301H9.16669C9.34888 3.83301 9.50002 3.98415 9.50002 4.16634V15.833C9.50002 16.0152 9.34888 16.1663 9.16669 16.1663H5.00002C3.4345 16.1663 2.16669 14.8985 2.16669 13.333V6.66634ZM5.83335 14.0413C6.45116 14.0413 6.95835 13.5342 6.95835 12.9163V7.08301C6.95835 6.4652 6.45116 5.95801 5.83335 5.95801C5.21554 5.95801 4.70835 6.4652 4.70835 7.08301V12.9163C4.70835 13.5342 5.21554 14.0413 5.83335 14.0413Z" stroke="#818181" stroke-opacity="0.8"/>
</svg>
