<svg width="141" height="141" viewBox="0 0 141 141" fill="none" xmlns="http://www.w3.org/2000/svg">
<g id="vuesax/bulk/clipboard-tick">
<g id="clipboard-tick">
<path id="Vector" opacity="0.4" d="M95.4099 21.4434H45.5899C31.0786 21.4434 19.3286 33.2521 19.3286 47.7046V102.988C19.3286 117.441 31.1374 129.25 45.5899 129.25H95.3511C109.862 129.25 121.612 117.441 121.612 102.988V47.7046C121.671 33.1934 109.862 21.4434 95.4099 21.4434Z" fill="#00A86B"/>
<path id="Vector_2" d="M84.3061 11.75H56.6936C50.5836 11.75 45.5898 16.685 45.5898 22.795V28.3175C45.5898 34.4275 50.5248 39.3625 56.6348 39.3625H84.3061C90.4161 39.3625 95.3511 34.4275 95.3511 28.3175V22.795C95.4098 16.685 90.4161 11.75 84.3061 11.75Z" fill="#00A86B"/>
<path id="Vector_3" d="M63.5088 99.581C62.3925 99.581 61.2762 99.1698 60.395 98.2885L51.5825 89.476C49.8788 87.7723 49.8788 84.9523 51.5825 83.2485C53.2862 81.5448 56.1063 81.5448 57.81 83.2485L63.5088 88.9473L83.895 68.561C85.5988 66.8573 88.4188 66.8573 90.1225 68.561C91.8263 70.2648 91.8263 73.0848 90.1225 74.7885L66.6225 98.2885C65.8 99.1698 64.625 99.581 63.5088 99.581Z" fill="#00A86B"/>
</g>
</g>
</svg>
