<svg width="89" height="89" viewBox="0 0 89 89" fill="none" xmlns="http://www.w3.org/2000/svg">
<g clip-path="url(#clip0_18_5268)">
<path d="M76.4658 32.2628C72.6091 15.0932 57.6274 7.41699 44.4999 7.41699C44.4999 7.41699 44.4999 7.41699 44.4628 7.41699C31.3724 7.41699 16.4278 15.0932 12.5341 32.2257C8.15826 51.3607 19.8766 67.5662 30.4824 77.8012C34.4133 81.5837 39.4566 83.4749 44.4999 83.4749C49.5433 83.4749 54.5866 81.5837 58.4804 77.8012C69.0862 67.5662 80.8045 51.3978 76.4658 32.2628ZM56.6633 35.3407L41.8299 50.1741C41.2737 50.7303 40.5691 50.9899 39.8645 50.9899C39.1599 50.9899 38.4553 50.7303 37.8991 50.1741L32.3366 44.6116C31.2612 43.5362 31.2612 41.7562 32.3366 40.6807C33.412 39.6053 35.192 39.6053 36.2674 40.6807L39.8645 44.2778L52.7324 31.4099C53.8078 30.3345 55.5878 30.3345 56.6633 31.4099C57.7387 32.4853 57.7387 34.2653 56.6633 35.3407Z" fill="#00A86B"/>
</g>
<defs>
<clipPath id="clip0_18_5268">
<rect width="89" height="89" fill="white"/>
</clipPath>
</defs>
</svg>
