<svg width="296" height="296" viewBox="0 0 296 296" fill="none" xmlns="http://www.w3.org/2000/svg">
<path opacity="0.4" d="M254.313 107.3C241.487 50.197 191.66 24.667 148 24.667C148 24.667 148 24.667 147.877 24.667C104.34 24.667 54.6368 50.197 41.6868 107.177C27.1334 170.817 66.1068 224.714 101.38 258.754C114.453 271.334 131.227 277.624 148 277.624C164.773 277.624 181.547 271.334 194.497 258.754C229.77 224.714 268.743 170.94 254.313 107.3Z" fill="#00A86B"/>
<path d="M132.583 169.584C130.24 169.584 127.897 168.72 126.047 166.87L107.547 148.37C103.97 144.794 103.97 138.874 107.547 135.297C111.123 131.72 117.043 131.72 120.62 135.297L132.583 147.26L175.38 104.464C178.957 100.887 184.877 100.887 188.453 104.464C192.03 108.04 192.03 113.96 188.453 117.537L139.12 166.87C137.27 168.72 134.927 169.584 132.583 169.584Z" fill="#00A86B"/>
</svg>
