<svg width="20" height="20" viewBox="0 0 20 20" fill="none" xmlns="http://www.w3.org/2000/svg">
<g id="vuesax/bold/sms">
<g id="sms">
<path id="Vector" d="M14.167 2.91699H5.83366C3.33366 2.91699 1.66699 4.16699 1.66699 7.08366V12.917C1.66699 15.8337 3.33366 17.0837 5.83366 17.0837H14.167C16.667 17.0837 18.3337 15.8337 18.3337 12.917V7.08366C18.3337 4.16699 16.667 2.91699 14.167 2.91699ZM14.5587 7.99199L11.9503 10.0753C11.4003 10.517 10.7003 10.7337 10.0003 10.7337C9.30033 10.7337 8.59199 10.517 8.05033 10.0753L5.44199 7.99199C5.17533 7.77533 5.13366 7.37533 5.34199 7.10866C5.55866 6.84199 5.95033 6.79199 6.21699 7.00866L8.82533 9.09199C9.45866 9.60033 10.5337 9.60033 11.167 9.09199L13.7753 7.00866C14.042 6.79199 14.442 6.83366 14.6503 7.10866C14.867 7.37533 14.8253 7.77533 14.5587 7.99199Z" fill="#151B33"/>
</g>
</g>
</svg>
