<svg width="246" height="246" viewBox="0 0 246 246" fill="none" xmlns="http://www.w3.org/2000/svg">
<path opacity="0.4" d="M110.188 25.1128C117.26 19.0653 128.843 19.0653 136.018 25.1128L152.213 39.0528C155.288 41.7178 161.028 43.8703 165.128 43.8703H182.553C193.418 43.8703 202.335 52.7878 202.335 63.6528V81.0778C202.335 85.0753 204.488 90.9178 207.153 93.9928L221.093 110.188C227.14 117.26 227.14 128.843 221.093 136.018L207.153 152.213C204.488 155.288 202.335 161.028 202.335 165.128V182.553C202.335 193.418 193.418 202.335 182.553 202.335H165.128C161.13 202.335 155.288 204.488 152.213 207.153L136.018 221.093C128.945 227.14 117.363 227.14 110.188 221.093L93.9925 207.153C90.9175 204.488 85.1775 202.335 81.0775 202.335H63.345C52.48 202.335 43.5625 193.418 43.5625 182.553V165.025C43.5625 161.028 41.41 155.288 38.8475 152.213L25.01 135.915C19.065 128.843 19.065 117.363 25.01 110.29L38.8475 93.9928C41.41 90.9178 43.5625 85.1778 43.5625 81.1803V63.5503C43.5625 52.6853 52.48 43.7678 63.345 43.7678H81.0775C85.075 43.7678 90.9175 41.6153 93.9925 38.9503L110.188 25.1128Z" fill="#00A86B"/>
<path d="M110.597 155.493C108.547 155.493 106.6 154.673 105.165 153.238L80.36 128.433C77.3875 125.46 77.3875 120.54 80.36 117.568C83.3325 114.595 88.2525 114.595 91.225 117.568L110.597 136.94L154.673 92.8651C157.645 89.8926 162.565 89.8926 165.537 92.8651C168.51 95.8376 168.51 100.758 165.537 103.73L116.03 153.238C114.595 154.673 112.647 155.493 110.597 155.493Z" fill="#00A86B"/>
</svg>
