<svg width="22" height="22" viewBox="0 0 22 22" fill="none" xmlns="http://www.w3.org/2000/svg">
<path d="M18.14 3.86797C15.4266 1.1638 11.0266 1.1638 8.33162 3.86797C6.43412 5.74714 5.86578 8.4513 6.59912 10.8346L2.29078 15.143C1.98828 15.4546 1.77745 16.0688 1.84162 16.5088L2.11662 18.5071C2.21745 19.1671 2.83162 19.7905 3.49162 19.8821L5.48995 20.1571C5.92995 20.2213 6.54412 20.0196 6.85578 19.6988L7.60745 18.9471C7.79078 18.773 7.79078 18.4796 7.60745 18.2963L5.82912 16.518C5.56328 16.2521 5.56328 15.8121 5.82912 15.5463C6.09495 15.2805 6.53495 15.2805 6.80078 15.5463L8.58828 17.3338C8.76245 17.508 9.05578 17.508 9.22995 17.3338L11.1733 15.3996C13.5474 16.1421 16.2516 15.5646 18.14 13.6855C20.8441 10.9813 20.8441 6.57214 18.14 3.86797ZM13.2908 10.9996C12.0258 10.9996 10.9991 9.97297 10.9991 8.70797C10.9991 7.44297 12.0258 6.4163 13.2908 6.4163C14.5558 6.4163 15.5824 7.44297 15.5824 8.70797C15.5824 9.97297 14.5558 10.9996 13.2908 10.9996Z" fill="#151B33"/>
</svg>
