<svg width="28" height="28" viewBox="0 0 28 28" fill="none" xmlns="http://www.w3.org/2000/svg">
<path d="M23.917 11.888H20.5453C17.7803 11.888 15.5287 9.63634 15.5287 6.87134V3.49967C15.5287 2.85801 15.0037 2.33301 14.362 2.33301L9.41533 2.33301C5.82199 2.33301 2.91699 4.66634 2.91699 8.83134L2.91699 19.168C2.91699 23.333 5.82199 25.6663 9.41533 25.6663L18.5853 25.6663C22.1787 25.6663 25.0837 23.333 25.0837 19.168L25.0837 13.0547C25.0837 12.413 24.5587 11.888 23.917 11.888ZM14.5603 18.3163C13.9537 20.2647 11.8187 21.3147 11.0837 21.3147C10.337 21.3147 8.24866 20.2997 7.60699 18.3163C7.18699 17.0213 7.66533 15.3297 9.14699 14.8513C9.82366 14.6297 10.547 14.758 11.072 15.1663C11.597 14.758 12.3203 14.6297 13.0087 14.8513C14.502 15.3297 14.9687 17.0213 14.5603 18.3163Z" fill="#00A86B"/>
<path d="M20.3353 10.2779C21.4436 10.2896 22.9836 10.2896 24.302 10.2896C24.967 10.2896 25.317 9.50792 24.8503 9.04125C23.1703 7.34959 20.1603 4.30459 18.4336 2.57792C17.9553 2.09958 17.127 2.42625 17.127 3.09125V7.16292C17.127 8.86625 18.5736 10.2779 20.3353 10.2779Z" fill="#151B33"/>
</svg>
