<svg width="28" height="28" viewBox="0 0 28 28" fill="none" xmlns="http://www.w3.org/2000/svg">
<g id="vuesax/bold/image">
<g id="image">
<path id="Vector" d="M25.6904 19.6236L22.0387 11.0836C21.3737 9.52031 20.3821 8.63364 19.2504 8.57531C18.1304 8.51698 17.0454 9.29864 16.2171 10.792L14.0004 14.7703C13.5337 15.6103 12.8687 16.112 12.1454 16.1703C11.4104 16.2403 10.6754 15.8553 10.0804 15.097L9.82374 14.7703C8.9954 13.732 7.96874 13.2303 6.91874 13.3353C5.86874 13.4403 4.9704 14.1636 4.3754 15.342L2.35707 19.367C1.63374 20.8253 1.70374 22.517 2.5554 23.8936C3.40707 25.2703 4.88874 26.0986 6.5104 26.0986L21.3971 26.0986C22.9604 26.0986 24.4187 25.317 25.2821 24.0103C26.1687 22.7036 26.3087 21.0586 25.6904 19.6236Z" fill="#00A86B"/>
<path id="Vector_2" d="M8.13181 9.77632C10.3097 9.77632 12.0751 8.01083 12.0751 5.83298C12.0751 3.65514 10.3097 1.88965 8.13181 1.88965C5.95397 1.88965 4.18848 3.65514 4.18848 5.83298C4.18848 8.01083 5.95397 9.77632 8.13181 9.77632Z" fill="#00A86B"/>
</g>
</g>
</svg>
