<svg width="28" height="28" viewBox="0 0 28 28" fill="none" xmlns="http://www.w3.org/2000/svg">
<path d="M23.0881 4.92305C19.6348 1.48138 14.0348 1.48138 10.6048 4.92305C8.18976 7.31471 7.46643 10.7564 8.39976 13.7897L2.91643 19.273C2.53143 19.6697 2.2631 20.4514 2.34476 21.0114L2.69476 23.5547C2.8231 24.3947 3.60476 25.188 4.44476 25.3047L6.9881 25.6547C7.5481 25.7364 8.32976 25.4797 8.72643 25.0714L9.6831 24.1147C9.91643 23.893 9.91643 23.5197 9.6831 23.2864L7.41976 21.023C7.08143 20.6847 7.08143 20.1247 7.41976 19.7864C7.7581 19.448 8.3181 19.448 8.65643 19.7864L10.9314 22.0614C11.1531 22.283 11.5264 22.283 11.7481 22.0614L14.2214 19.5997C17.2431 20.5447 20.6848 19.8097 23.0881 17.418C26.5298 13.9764 26.5298 8.36471 23.0881 4.92305ZM16.9164 13.9997C15.3064 13.9997 13.9998 12.693 13.9998 11.083C13.9998 9.47305 15.3064 8.16638 16.9164 8.16638C18.5264 8.16638 19.8331 9.47305 19.8331 11.083C19.8331 12.693 18.5264 13.9997 16.9164 13.9997Z" fill="#00A86B"/>
</svg>
