<svg width="169" height="169" viewBox="0 0 169 169" fill="none" xmlns="http://www.w3.org/2000/svg">
<path opacity="0.5" d="M14.084 84.4997C14.084 51.3049 14.084 34.7076 24.3963 24.3953C34.7085 14.083 51.3059 14.083 84.5006 14.083C117.695 14.083 134.293 14.083 144.605 24.3953C154.917 34.7076 154.917 51.3049 154.917 84.4997C154.917 117.694 154.917 134.292 144.605 144.604C134.293 154.916 117.695 154.916 84.5006 154.916C51.3059 154.916 34.7085 154.916 24.3963 144.604C14.084 134.292 14.084 117.694 14.084 84.4997Z" fill="#00A86B"/>
<path fill-rule="evenodd" clip-rule="evenodd" d="M126.75 68.8398C126.75 83.5247 114.797 95.4294 100.051 95.4294C97.3609 95.4294 91.2347 94.8111 88.2539 92.3374L84.5282 96.0483C82.3382 98.2298 82.9297 98.872 83.9036 99.9297C84.3106 100.371 84.7838 100.885 85.1493 101.613C85.1493 101.613 88.2539 105.942 85.1493 110.27C83.2867 112.744 78.071 116.207 72.1102 110.27L70.8687 111.507C70.8687 111.507 74.5938 115.835 71.4891 120.164C69.6267 122.638 64.6595 125.111 60.3132 120.783L55.9669 125.111C52.9865 128.079 49.344 126.348 47.8953 125.111L44.1698 121.401C40.6928 117.938 42.7211 114.187 44.1698 112.744L76.457 80.5891C76.457 80.5891 73.3523 75.6416 73.3523 68.8398C73.3523 54.1546 85.3056 42.25 100.051 42.25C114.797 42.25 126.75 54.1546 126.75 68.8398ZM100.051 78.1146C105.194 78.1146 109.364 73.9621 109.364 68.8391C109.364 63.7164 105.194 59.5636 100.051 59.5636C94.9069 59.5636 90.7368 63.7164 90.7368 68.8391C90.7368 73.9621 94.9069 78.1146 100.051 78.1146Z" fill="#00A86B"/>
</svg>
