<svg width="22" height="22" viewBox="0 0 22 22" fill="none" xmlns="http://www.w3.org/2000/svg">
<g id="vuesax/linear/more">
<g id="more">
<path id="Vector" d="M12.833 4.58333C12.833 3.575 12.008 2.75 10.9997 2.75C9.99134 2.75 9.16634 3.575 9.16634 4.58333C9.16634 5.59167 9.99134 6.41667 10.9997 6.41667C12.008 6.41667 12.833 5.59167 12.833 4.58333Z" fill="#151B33"/>
<path id="Vector_2" d="M12.833 17.4163C12.833 16.408 12.008 15.583 10.9997 15.583C9.99134 15.583 9.16634 16.408 9.16634 17.4163C9.16634 18.4247 9.99134 19.2497 10.9997 19.2497C12.008 19.2497 12.833 18.4247 12.833 17.4163Z" fill="#151B33"/>
<path id="Vector_3" d="M12.833 11.0003C12.833 9.99199 12.008 9.16699 10.9997 9.16699C9.99134 9.16699 9.16634 9.99199 9.16634 11.0003C9.16634 12.0087 9.99134 12.8337 10.9997 12.8337C12.008 12.8337 12.833 12.0087 12.833 11.0003Z" fill="#151B33"/>
</g>
</g>
</svg>
