<svg width="26" height="26" viewBox="0 0 26 26" fill="none" xmlns="http://www.w3.org/2000/svg">
<g id="vuesax/bold/send-2">
<g id="send-2">
<path id="Vector" d="M22.793 8.51512L19.543 18.2976C17.3439 24.8735 13.758 24.8734 11.5697 18.2976L10.6055 15.3943L7.70221 14.4301C1.12637 12.2418 1.12637 8.64512 7.70221 6.45678L17.4739 3.19595C21.8614 1.74429 24.2555 4.12762 22.793 8.51512ZM16.9647 8.16845L12.8264 12.2851C12.6639 12.4476 12.588 12.6535 12.588 12.8593C12.588 13.0651 12.6639 13.2709 12.8264 13.4335C13.1405 13.7476 13.6605 13.7476 13.9747 13.4335L18.113 9.31678C18.4272 9.00262 18.4272 8.48262 18.113 8.16845C17.7989 7.85429 17.2789 7.85429 16.9647 8.16845Z" fill="white"/>
</g>
</g>
</svg>
