<svg width="134" height="22" viewBox="0 0 134 22" fill="none" xmlns="http://www.w3.org/2000/svg">
<path d="M10.093 1.95296C10.4514 1.18123 11.5486 1.18123 11.907 1.95296L13.8821 6.206C14.0278 6.51975 14.3253 6.73591 14.6688 6.77753L19.324 7.34173C20.1687 7.44411 20.5077 8.48755 19.8845 9.06689L16.45 12.2596C16.1966 12.4951 16.083 12.8449 16.1495 13.1844L17.0515 17.7861C17.2151 18.6211 16.3275 19.266 15.584 18.8523L11.4862 16.5725C11.1839 16.4043 10.8161 16.4043 10.5138 16.5725L6.41604 18.8523C5.67247 19.266 4.78487 18.6211 4.94853 17.7861L5.85049 13.1844C5.91703 12.8449 5.80338 12.4951 5.55001 12.2596L2.11549 9.06689C1.49228 8.48755 1.83131 7.44411 2.67603 7.34173L7.33125 6.77753C7.67467 6.73591 7.97219 6.51975 8.1179 6.206L10.093 1.95296Z" fill="#FAD200"/>
<path d="M38.093 1.95296C38.4514 1.18123 39.5486 1.18123 39.907 1.95296L41.8821 6.206C42.0278 6.51975 42.3253 6.73591 42.6688 6.77753L47.324 7.34173C48.1687 7.44411 48.5077 8.48755 47.8845 9.06689L44.45 12.2596C44.1966 12.4951 44.083 12.8449 44.1495 13.1844L45.0515 17.7861C45.2151 18.6211 44.3275 19.266 43.584 18.8523L39.4862 16.5725C39.1839 16.4043 38.8161 16.4043 38.5138 16.5725L34.416 18.8523C33.6725 19.266 32.7849 18.6211 32.9485 17.7861L33.8505 13.1844C33.917 12.8449 33.8034 12.4951 33.55 12.2596L30.1155 9.06689C29.4923 8.48755 29.8313 7.44411 30.676 7.34173L35.3313 6.77753C35.6747 6.73591 35.9722 6.51975 36.1179 6.206L38.093 1.95296Z" fill="#FAD200"/>
<path d="M66.093 1.95296C66.4514 1.18123 67.5486 1.18123 67.907 1.95296L69.8821 6.206C70.0278 6.51975 70.3253 6.73591 70.6688 6.77753L75.324 7.34173C76.1687 7.44411 76.5077 8.48755 75.8845 9.06689L72.45 12.2596C72.1966 12.4951 72.083 12.8449 72.1495 13.1844L73.0515 17.7861C73.2151 18.6211 72.3275 19.266 71.584 18.8523L67.4862 16.5725C67.1839 16.4043 66.8161 16.4043 66.5138 16.5725L62.416 18.8523C61.6725 19.266 60.7849 18.6211 60.9485 17.7861L61.8505 13.1844C61.917 12.8449 61.8034 12.4951 61.55 12.2596L58.1155 9.06689C57.4923 8.48755 57.8313 7.44411 58.676 7.34173L63.3313 6.77753C63.6747 6.73591 63.9722 6.51975 64.1179 6.206L66.093 1.95296Z" fill="#FAD200"/>
<path d="M94.093 1.95296C94.4514 1.18123 95.5486 1.18123 95.907 1.95296L97.8821 6.206C98.0278 6.51975 98.3253 6.73591 98.6688 6.77753L103.324 7.34173C104.169 7.44411 104.508 8.48755 103.885 9.06689L100.45 12.2596C100.197 12.4951 100.083 12.8449 100.15 13.1844L101.051 17.7861C101.215 18.6211 100.328 19.266 99.584 18.8523L95.4862 16.5725C95.1839 16.4043 94.8161 16.4043 94.5138 16.5725L90.416 18.8523C89.6725 19.266 88.7849 18.6211 88.9485 17.7861L89.8505 13.1844C89.917 12.8449 89.8034 12.4951 89.55 12.2596L86.1155 9.06689C85.4923 8.48755 85.8313 7.44411 86.676 7.34173L91.3313 6.77753C91.6747 6.73591 91.9722 6.51975 92.1179 6.206L94.093 1.95296Z" fill="#FAD200"/>
<path d="M122.093 1.95296C122.451 1.18123 123.549 1.18123 123.907 1.95296L125.882 6.206C126.028 6.51975 126.325 6.73591 126.669 6.77753L131.324 7.34173C132.169 7.44411 132.508 8.48755 131.885 9.06689L128.45 12.2596C128.197 12.4951 128.083 12.8449 128.15 13.1844L129.051 17.7861C129.215 18.6211 128.328 19.266 127.584 18.8523L123.486 16.5725C123.184 16.4043 122.816 16.4043 122.514 16.5725L118.416 18.8523C117.672 19.266 116.785 18.6211 116.949 17.7861L117.85 13.1844C117.917 12.8449 117.803 12.4951 117.55 12.2596L114.115 9.06689C113.492 8.48755 113.831 7.44411 114.676 7.34173L119.331 6.77753C119.675 6.73591 119.972 6.51975 120.118 6.206L122.093 1.95296Z" fill="#FAD200"/>
</svg>
