<svg width="22" height="22" viewBox="0 0 22 22" fill="none" xmlns="http://www.w3.org/2000/svg">
<path fill-rule="evenodd" clip-rule="evenodd" d="M14.9797 13.8904L14.9794 13.8896C14.9116 13.7109 14.8418 13.5271 14.8171 13.4601L14.7922 13.3925H17.536C19.2053 13.3925 20.2146 12.2161 20.2146 10.7139C20.2146 5.40713 19.1031 1.78531 16.6431 1.78531C16.6431 1.78531 10.4138 1.78551 10.3922 1.78506C9.80461 1.77452 9.05871 1.85714 8.30664 2.12622C7.978 2.24381 7.67566 2.39011 7.4047 2.5654C7.08318 2.09446 6.54212 1.78531 5.92885 1.78531H4.14314C3.15691 1.78531 2.35742 2.58481 2.35742 3.57103V11.6067C2.35742 12.593 3.15691 13.3925 4.14314 13.3925H5.92885C6.10596 13.3925 6.27704 13.3667 6.43855 13.3187C7.06078 14.2247 8.63474 16.0232 9.89939 17.4683L9.8994 17.4684C10.5851 18.2519 11.1799 18.9315 11.4827 19.3086L11.7507 19.6425H12.1857C12.7278 19.6425 13.1987 19.6014 13.7398 19.4438C14.9395 19.0945 15.7503 18.2782 15.7503 16.9639C15.7503 16.4995 15.6681 16.0044 15.5166 15.4548C15.4163 15.0913 15.2924 14.7241 15.1227 14.2684C15.0984 14.2033 15.0398 14.0489 14.9797 13.8904ZM7.71457 11.6067V5.35674C7.71457 4.55118 8.11811 4.09025 8.90821 3.80756C9.42048 3.62428 9.96937 3.56348 10.3624 3.5705L15.3341 3.57102L16.6431 3.57103C17.5495 3.57103 18.4289 6.43644 18.4289 10.7139C18.4289 11.2854 18.1532 11.6067 17.536 11.6067H13.9646C12.898 11.6067 12.6749 12.4314 12.8973 13.3243C12.9496 13.5344 13.0261 13.7655 13.1422 14.0795C13.1701 14.1548 13.2453 14.3532 13.3156 14.5383L13.3157 14.5386L13.3162 14.54L13.3164 14.5405C13.3738 14.6918 13.4277 14.8338 13.4493 14.8919C13.6024 15.3028 13.7111 15.625 13.7951 15.9294C13.9074 16.3368 13.9646 16.6812 13.9646 16.9639C13.9646 17.3665 13.7522 17.5803 13.2406 17.7293C13.0256 17.7919 12.814 17.8264 12.5895 17.8432C12.1197 17.2817 11.447 16.5141 10.7545 15.7241L10.7545 15.724C9.41273 14.1932 7.99711 12.5782 7.84109 12.2139C7.75424 12.0111 7.71457 11.8212 7.71457 11.6067ZM4.14314 11.6067V3.57103H5.92885V11.6067H4.14314Z" fill="black"/>
</svg>
