<svg width="22" height="22" viewBox="0 0 22 22" fill="none" xmlns="http://www.w3.org/2000/svg">
<path fill-rule="evenodd" clip-rule="evenodd" d="M19.6423 10.7137C19.6423 9.21152 18.633 8.03516 16.9637 8.03516H14.22L14.2448 7.96755C14.2696 7.90045 14.3395 7.71617 14.4074 7.53719C14.4676 7.3787 14.5261 7.22437 14.5504 7.15918C14.7202 6.70351 14.8441 6.33637 14.9443 5.97277C15.0958 5.42322 15.178 4.92811 15.178 4.46373C15.178 3.14944 14.3672 2.33312 13.1676 1.9838C12.6265 1.82625 12.1555 1.78507 11.6066 1.78516H11.1785L10.9104 2.11898C10.6076 2.49608 10.0128 3.17572 9.32713 3.95926C8.06218 5.40472 6.48775 7.20382 5.86583 8.10962C5.70445 8.06169 5.53353 8.03596 5.35659 8.03596H3.57087C2.58465 8.03596 1.78516 8.83545 1.78516 9.82167V17.8574C1.78516 18.8436 2.58465 19.6431 3.57087 19.6431H5.35659C5.97009 19.6431 6.51133 19.3337 6.8328 18.8625C7.10367 19.0376 7.40589 19.1839 7.73438 19.3014C8.48645 19.5705 9.23235 19.6531 9.85159 19.6418L16.0709 19.6423C18.5308 19.6423 19.6423 16.0205 19.6423 10.7137ZM8.33594 17.6201C7.54584 17.3374 7.1423 16.8764 7.1423 16.0709V9.82167V9.82087C7.1423 9.60641 7.18197 9.41651 7.26883 9.21372C7.42485 8.84944 8.84046 7.23439 10.1822 5.70362C10.8747 4.91357 11.5475 4.14598 12.0173 3.58438C12.2418 3.60122 12.4534 3.63572 12.6683 3.69831C13.18 3.8473 13.3923 4.06107 13.3923 4.46373C13.3923 4.74639 13.3351 5.0908 13.2228 5.4982C13.1389 5.80264 13.0302 6.12477 12.8771 6.53575C12.8553 6.59407 12.8011 6.73696 12.7435 6.8889L12.7434 6.88901L12.7433 6.88936C12.6731 7.07443 12.5978 7.27282 12.5699 7.34815C12.4538 7.6621 12.3774 7.89325 12.325 8.10329C12.1026 8.99619 12.3257 9.82087 13.3923 9.82087H16.9637C17.5809 9.82087 17.8566 10.1422 17.8566 10.7137C17.8566 14.9912 16.9772 17.8566 16.0709 17.8566H9.82087L9.7879 17.8571C9.3971 17.8641 8.84822 17.8033 8.33594 17.6201ZM3.57087 17.8574V9.82167H5.35659V17.8574H3.57087Z" fill="black"/>
</svg>
