<svg width="25" height="25" viewBox="0 0 25 25" fill="none" xmlns="http://www.w3.org/2000/svg">
<path d="M19.8816 1.94594C18.7281 0.63119 16.6429 0.0675278 13.9755 0.0675278H6.23378C5.68803 0.0675278 5.22428 0.464434 5.13884 1.0026L1.91535 21.4467C1.85127 21.8498 2.16342 22.2151 2.57204 22.2151H7.35145L8.55182 14.6015L8.51461 14.8399C8.60006 14.3017 9.06036 13.9048 9.60542 13.9048H11.8766C16.3384 13.9048 19.832 12.0926 20.8525 6.85008C20.8828 6.69504 20.909 6.54413 20.9317 6.39667C20.8029 6.32845 20.8029 6.32845 20.9317 6.39667C21.2356 4.459 20.9297 3.14011 19.8816 1.94594Z" fill="#27346A"/>
<path d="M10.3806 5.69864C10.5081 5.638 10.6501 5.60424 10.7989 5.60424H16.8683C17.587 5.60424 18.2574 5.65109 18.87 5.74963C19.0457 5.77788 19.2159 5.81027 19.3813 5.84748C19.5467 5.884 19.7072 5.92535 19.863 5.97082C19.9408 5.99356 20.0173 6.01699 20.0924 6.0418C20.3936 6.1424 20.674 6.25955 20.9317 6.39667C21.2356 4.45831 20.9297 3.14011 19.8816 1.94594C18.7274 0.63119 16.6429 0.0675278 13.9755 0.0675278H6.23309C5.68803 0.0675278 5.22428 0.464434 5.13884 1.0026L1.91535 21.446C1.85127 21.8498 2.16342 22.2144 2.57135 22.2144H7.35146L9.84177 6.42217C9.89276 6.0983 10.1009 5.83301 10.3806 5.69864Z" fill="#27346A"/>
<path d="M20.8525 6.85009C19.832 12.0919 16.3384 13.9048 11.8766 13.9048H9.60476C9.05971 13.9048 8.59941 14.3017 8.51465 14.8399L7.02143 24.3064C6.96561 24.6592 7.23848 24.9789 7.59542 24.9789H11.6244C12.1013 24.9789 12.5071 24.6316 12.5816 24.161L12.6208 23.9557L13.3802 19.1432L13.4291 18.8772C13.5035 18.4065 13.9094 18.0593 14.3862 18.0593H14.9892C18.8921 18.0593 21.9481 16.4737 22.8412 11.8879C23.214 9.97159 23.021 8.37156 22.035 7.24768C21.7359 6.90728 21.3645 6.62614 20.9318 6.39668C20.9083 6.54483 20.8828 6.69504 20.8525 6.85009Z" fill="#2790C3"/>
<path d="M19.8637 5.97083C19.708 5.92535 19.5475 5.884 19.3821 5.84748C19.2167 5.81096 19.0458 5.77858 18.8708 5.75032C18.2575 5.6511 17.5877 5.60424 16.8683 5.60424H10.7997C10.6501 5.60424 10.5082 5.638 10.3814 5.69933C10.1009 5.8337 9.89353 6.09831 9.84254 6.42286L8.55259 14.6015L8.51538 14.8399C8.60014 14.3017 9.06044 13.9048 9.6055 13.9048H11.8774C16.3391 13.9048 19.8327 12.0926 20.8533 6.85009C20.8836 6.69504 20.9091 6.54483 20.9325 6.39668C20.6741 6.26024 20.3943 6.14241 20.0932 6.04249C20.0181 6.01768 19.9416 5.99357 19.8637 5.97083Z" fill="#1F264F"/>
</svg>
