<svg width="24" height="25" viewBox="0 0 24 25" fill="none" xmlns="http://www.w3.org/2000/svg">
<path d="M15.7128 17.2726L7.22748 8.78728C6.93757 8.49737 6.93757 8.01653 7.22748 7.72662C7.5174 7.43671 7.99823 7.43671 8.28814 7.72662L16.7734 16.2119C17.0633 16.5018 17.0633 16.9826 16.7734 17.2726C16.4835 17.5625 16.0027 17.5625 15.7128 17.2726Z" fill="#151B33"/>
<path d="M7.22658 17.2726C6.93666 16.9826 6.93666 16.5018 7.22658 16.2119L15.7119 7.72662C16.0018 7.43671 16.4826 7.43671 16.7725 7.72662C17.0624 8.01653 17.0624 8.49737 16.7725 8.78728L8.28724 17.2726C7.99732 17.5625 7.51649 17.5625 7.22658 17.2726Z" fill="#151B33"/>
</svg>
