<svg width="22" height="22" viewBox="0 0 22 22" fill="none" xmlns="http://www.w3.org/2000/svg">
<path d="M14.8415 1.83301H7.15982C3.82315 1.83301 1.83398 3.82217 1.83398 7.15884V14.8313C1.83398 18.1772 3.82315 20.1663 7.15982 20.1663H14.8323C18.169 20.1663 20.1582 18.1772 20.1582 14.8405V7.15884C20.1673 3.82217 18.1782 1.83301 14.8415 1.83301ZM14.6673 11.6872H11.6882V14.6663C11.6882 15.0422 11.3765 15.3538 11.0007 15.3538C10.6248 15.3538 10.3132 15.0422 10.3132 14.6663V11.6872H7.33398C6.95815 11.6872 6.64648 11.3755 6.64648 10.9997C6.64648 10.6238 6.95815 10.3122 7.33398 10.3122H10.3132V7.33301C10.3132 6.95717 10.6248 6.64551 11.0007 6.64551C11.3765 6.64551 11.6882 6.95717 11.6882 7.33301V10.3122H14.6673C15.0432 10.3122 15.3548 10.6238 15.3548 10.9997C15.3548 11.3755 15.0432 11.6872 14.6673 11.6872Z" fill="#151B33"/>
</svg>
