<svg width="22" height="22" viewBox="0 0 22 22" fill="none" xmlns="http://www.w3.org/2000/svg">
<path d="M13.9523 6.00391H5.29898C5.04232 6.00391 4.80398 6.01307 4.58398 6.02224C2.41148 6.15057 1.83398 6.94807 1.83398 9.42307V9.95474C1.83398 10.4589 2.24648 10.8714 2.75065 10.8714H16.5007C17.0048 10.8714 17.4173 10.4589 17.4173 9.95474V9.42307C17.4173 6.69141 16.7207 6.00391 13.9523 6.00391Z" fill="black" fill-opacity="0.8"/>
<path d="M2.75065 12.2471C2.24648 12.2471 1.83398 12.6596 1.83398 13.1637V15.8312C1.83398 18.5629 2.53065 19.2504 5.29898 19.2504H13.9523C16.6748 19.2504 17.3898 18.5904 17.4173 15.9779V13.1637C17.4173 12.6596 17.0048 12.2471 16.5007 12.2471H2.75065ZM6.38065 17.0137H4.81315C4.43732 17.0137 4.12565 16.7021 4.12565 16.3262C4.12565 15.9504 4.43732 15.6387 4.81315 15.6387H6.38982C6.76565 15.6387 7.07732 15.9504 7.07732 16.3262C7.07732 16.7021 6.76565 17.0137 6.38065 17.0137ZM11.5048 17.0137H8.35148C7.97565 17.0137 7.66398 16.7021 7.66398 16.3262C7.66398 15.9504 7.97565 15.6387 8.35148 15.6387H11.5048C11.8807 15.6387 12.1923 15.9504 12.1923 16.3262C12.1923 16.7021 11.8898 17.0137 11.5048 17.0137Z" fill="black" fill-opacity="0.8"/>
<path d="M20.1665 12.219V7.41564C20.1665 4.54647 18.5256 3.2998 16.0506 3.2998H7.86481C7.16815 3.2998 6.54481 3.40064 5.99481 3.61147C5.56398 3.7673 5.17898 3.99647 4.86731 4.29897C4.70231 4.4548 4.83065 4.71147 5.06898 4.71147H15.0331C17.0956 4.71147 18.764 6.3798 18.764 8.44231V15.0148C18.764 15.244 19.0115 15.3723 19.1765 15.2073C19.809 14.5381 20.1665 13.5573 20.1665 12.219Z" fill="#151B33"/>
</svg>
