<svg width="22" height="22" viewBox="0 0 22 22" fill="none" xmlns="http://www.w3.org/2000/svg">
<path d="M20.1673 6.92038C20.1673 7.52538 19.6723 8.02038 19.0673 8.02038H2.93398C2.32898 8.02038 1.83398 7.52538 1.83398 6.92038V6.91121C1.83398 4.81204 3.52982 3.11621 5.62898 3.11621H16.3632C18.4623 3.11621 20.1673 4.82121 20.1673 6.92038Z" fill="#151B33"/>
<path d="M1.83398 10.4955V15.088C1.83398 17.1872 3.52982 18.883 5.62898 18.883H16.3632C18.4623 18.883 20.1673 17.178 20.1673 15.0788V10.4955C20.1673 9.89051 19.6723 9.39551 19.0673 9.39551H2.93398C2.32898 9.39551 1.83398 9.89051 1.83398 10.4955ZM7.33398 15.8122H5.50065C5.12482 15.8122 4.81315 15.5005 4.81315 15.1247C4.81315 14.7488 5.12482 14.4372 5.50065 14.4372H7.33398C7.70982 14.4372 8.02148 14.7488 8.02148 15.1247C8.02148 15.5005 7.70982 15.8122 7.33398 15.8122ZM13.2923 15.8122H9.62565C9.24982 15.8122 8.93815 15.5005 8.93815 15.1247C8.93815 14.7488 9.24982 14.4372 9.62565 14.4372H13.2923C13.6682 14.4372 13.9798 14.7488 13.9798 15.1247C13.9798 15.5005 13.6682 15.8122 13.2923 15.8122Z" fill="black" fill-opacity="0.8"/>
</svg>
