<svg width="22" height="22" viewBox="0 0 22 22" fill="none" xmlns="http://www.w3.org/2000/svg">
<path d="M14.6667 1.83301H7.33333C4.125 1.83301 2.75 3.66634 2.75 6.41634V15.583C2.75 18.333 4.125 20.1663 7.33333 20.1663H14.6667C17.875 20.1663 19.25 18.333 19.25 15.583V6.41634C19.25 3.66634 17.875 1.83301 14.6667 1.83301ZM7.33333 11.2288H11C11.3758 11.2288 11.6875 11.5405 11.6875 11.9163C11.6875 12.2922 11.3758 12.6038 11 12.6038H7.33333C6.9575 12.6038 6.64583 12.2922 6.64583 11.9163C6.64583 11.5405 6.9575 11.2288 7.33333 11.2288ZM14.6667 16.2705H7.33333C6.9575 16.2705 6.64583 15.9588 6.64583 15.583C6.64583 15.2072 6.9575 14.8955 7.33333 14.8955H14.6667C15.0425 14.8955 15.3542 15.2072 15.3542 15.583C15.3542 15.9588 15.0425 16.2705 14.6667 16.2705ZM16.9583 8.47884H15.125C13.7317 8.47884 12.6042 7.35134 12.6042 5.95801V4.12467C12.6042 3.74884 12.9158 3.43717 13.2917 3.43717C13.6675 3.43717 13.9792 3.74884 13.9792 4.12467V5.95801C13.9792 6.59051 14.4925 7.10384 15.125 7.10384H16.9583C17.3342 7.10384 17.6458 7.41551 17.6458 7.79134C17.6458 8.16717 17.3342 8.47884 16.9583 8.47884Z" fill="black" fill-opacity="0.8"/>
</svg>
