<svg width="22" height="22" viewBox="0 0 22 22" fill="none" xmlns="http://www.w3.org/2000/svg">
<path d="M7.22404 11.0638C7.22404 10.688 7.5357 10.3763 7.91154 10.3763H12.9349V2.62134C12.9257 2.18134 12.5774 1.83301 12.1374 1.83301C6.7382 1.83301 2.9707 5.60051 2.9707 10.9997C2.9707 16.3988 6.7382 20.1663 12.1374 20.1663C12.5682 20.1663 12.9257 19.818 12.9257 19.378V11.7422H7.91154C7.52654 11.7513 7.22404 11.4397 7.22404 11.0638Z" fill="#FF3838"/>
<path d="M18.8291 10.5785L16.2258 7.96598C15.9599 7.70014 15.5199 7.70014 15.2541 7.96598C14.9883 8.23181 14.9883 8.67181 15.2541 8.93764L16.6841 10.3676H12.9258V11.7426H16.6749L15.2449 13.1726C14.9791 13.4385 14.9791 13.8785 15.2449 14.1443C15.3824 14.2818 15.5566 14.346 15.7308 14.346C15.9049 14.346 16.0791 14.2818 16.2166 14.1443L18.8199 11.5318C19.0949 11.2751 19.0949 10.8443 18.8291 10.5785Z" fill="#FF3838" fill-opacity="0.8"/>
</svg>
