<svg width="31" height="25" viewBox="0 0 31 25" fill="none" xmlns="http://www.w3.org/2000/svg">
<mask id="mask0_674_5451" style="mask-type:luminance" maskUnits="userSpaceOnUse" x="0" y="0" width="31" height="25">
<rect x="0.59375" y="0.938477" width="30.2141" height="23.2416" rx="2.32416" fill="white"/>
</mask>
<g mask="url(#mask0_674_5451)">
<path fill-rule="evenodd" clip-rule="evenodd" d="M0.59375 0.938477H30.8078V24.1801H0.59375V0.938477Z" fill="#F7FCFF"/>
<path fill-rule="evenodd" clip-rule="evenodd" d="M0.59375 15.1426V17.0794H30.8078V15.1426H0.59375Z" fill="#E31D1C"/>
<path fill-rule="evenodd" clip-rule="evenodd" d="M0.59375 18.6924V20.6292H30.8078V18.6924H0.59375Z" fill="#E31D1C"/>
<path fill-rule="evenodd" clip-rule="evenodd" d="M0.59375 8.04004V9.97684H30.8078V8.04004H0.59375Z" fill="#E31D1C"/>
<path fill-rule="evenodd" clip-rule="evenodd" d="M0.59375 22.2432V24.18H30.8078V22.2432H0.59375Z" fill="#E31D1C"/>
<path fill-rule="evenodd" clip-rule="evenodd" d="M0.59375 11.5908V13.5276H30.8078V11.5908H0.59375Z" fill="#E31D1C"/>
<path fill-rule="evenodd" clip-rule="evenodd" d="M0.59375 0.938477V2.87528H30.8078V0.938477H0.59375Z" fill="#E31D1C"/>
<path fill-rule="evenodd" clip-rule="evenodd" d="M0.59375 4.48926V6.42606H30.8078V4.48926H0.59375Z" fill="#E31D1C"/>
<rect x="0.59375" y="0.938477" width="18.8838" height="12.5892" fill="#2E42A5"/>
<path fill-rule="evenodd" clip-rule="evenodd" d="M5.99572 3.78458L5.31036 4.27739L5.54174 3.40039L4.93301 2.84462H5.7281L5.99476 2.12891L6.30745 2.84462H6.98525L6.45269 3.40039L6.65886 4.27739L5.99572 3.78458ZM2.21906 3.78477L1.53369 4.27757L1.76508 3.40058L1.15635 2.8448H1.95144L2.2181 2.12909L2.53079 2.8448H3.20858L2.67603 3.40058L2.8822 4.27757L2.21906 3.78477ZM9.08711 4.27739L9.77248 3.78458L10.4356 4.27739L10.2294 3.40039L10.762 2.84462H10.0842L9.77152 2.12891L9.50486 2.84462H8.70977L9.3185 3.40039L9.08711 4.27739ZM13.5492 3.78458L12.8639 4.27739L13.0953 3.40039L12.4865 2.84462H13.2816L13.5483 2.12891L13.861 2.84462H14.5388L14.0062 3.40039L14.2124 4.27739L13.5492 3.78458ZM1.5336 8.15061L2.21896 7.6578L2.8821 8.15061L2.67593 7.27361L3.20849 6.71784H2.5307L2.21801 6.00213L1.95134 6.71784H1.15625L1.76498 7.27361L1.5336 8.15061ZM5.99572 7.6578L5.31036 8.15061L5.54174 7.27361L4.93301 6.71784H5.7281L5.99476 6.00213L6.30745 6.71784H6.98525L6.45269 7.27361L6.65886 8.15061L5.99572 7.6578ZM9.08711 8.15061L9.77248 7.6578L10.4356 8.15061L10.2294 7.27361L10.762 6.71784H10.0842L9.77152 6.00213L9.50486 6.71784H8.70977L9.3185 7.27361L9.08711 8.15061ZM13.5492 7.6578L12.8639 8.15061L13.0953 7.27361L12.4865 6.71784H13.2816L13.5483 6.00213L13.861 6.71784H14.5388L14.0062 7.27361L14.2124 8.15061L13.5492 7.6578ZM1.5336 12.025L2.21896 11.5322L2.8821 12.025L2.67593 11.148L3.20849 10.5922H2.5307L2.21801 9.87648L1.95134 10.5922H1.15625L1.76498 11.148L1.5336 12.025ZM5.99572 11.5322L5.31036 12.025L5.54174 11.148L4.93301 10.5922H5.7281L5.99476 9.87648L6.30745 10.5922H6.98525L6.45269 11.148L6.65886 12.025L5.99572 11.5322ZM9.08711 12.025L9.77248 11.5322L10.4356 12.025L10.2294 11.148L10.762 10.5922H10.0842L9.77152 9.87648L9.50486 10.5922H8.70977L9.3185 11.148L9.08711 12.025ZM13.5492 11.5322L12.8639 12.025L13.0953 11.148L12.4865 10.5922H13.2816L13.5483 9.87648L13.861 10.5922H14.5388L14.0062 11.148L14.2124 12.025L13.5492 11.5322ZM16.6406 4.27739L17.326 3.78458L17.9891 4.27739L17.783 3.40039L18.3155 2.84462H17.6377L17.325 2.12891L17.0584 2.84462H16.2633L16.872 3.40039L16.6406 4.27739ZM17.326 7.6578L16.6406 8.15061L16.872 7.27361L16.2633 6.71784H17.0584L17.325 6.00213L17.6377 6.71784H18.3155L17.783 7.27361L17.9891 8.15061L17.326 7.6578ZM16.6406 12.025L17.326 11.5322L17.9891 12.025L17.783 11.148L18.3155 10.5922H17.6377L17.325 9.87648L17.0584 10.5922H16.2633L16.872 11.148L16.6406 12.025ZM4.10734 5.72176L3.42198 6.21456L3.65336 5.33757L3.04463 4.7818H3.83972L4.10639 4.06608L4.41907 4.7818H5.09687L4.56431 5.33757L4.77048 6.21456L4.10734 5.72176ZM7.19873 6.21456L7.8841 5.72176L8.54724 6.21456L8.34107 5.33757L8.87362 4.7818H8.19583L7.88314 4.06608L7.61648 4.7818H6.82139L7.43012 5.33757L7.19873 6.21456ZM11.6609 5.72176L10.9755 6.21456L11.2069 5.33757L10.5981 4.7818H11.3932L11.6599 4.06608L11.9726 4.7818H12.6504L12.1178 5.33757L12.324 6.21456L11.6609 5.72176ZM3.42198 10.0878L4.10734 9.59498L4.77048 10.0878L4.56431 9.21079L5.09687 8.65502H4.41907L4.10639 7.9393L3.83972 8.65502H3.04463L3.65336 9.21079L3.42198 10.0878ZM7.8841 9.59498L7.19873 10.0878L7.43012 9.21079L6.82139 8.65502H7.61648L7.88314 7.9393L8.19583 8.65502H8.87362L8.34107 9.21079L8.54724 10.0878L7.8841 9.59498ZM10.9755 10.0878L11.6609 9.59498L12.324 10.0878L12.1178 9.21079L12.6504 8.65502H11.9726L11.6599 7.9393L11.3932 8.65502H10.5981L11.2069 9.21079L10.9755 10.0878ZM15.4376 5.72176L14.7523 6.21456L14.9836 5.33757L14.3749 4.7818H15.17L15.4367 4.06608L15.7494 4.7818H16.4271L15.8946 5.33757L16.1008 6.21456L15.4376 5.72176ZM14.7523 10.0878L15.4376 9.59498L16.1008 10.0878L15.8946 9.21079L16.4271 8.65502H15.7494L15.4367 7.9393L15.17 8.65502H14.3749L14.9836 9.21079L14.7523 10.0878Z" fill="#F7FCFF"/>
</g>
</svg>
