<svg width="42" height="42" viewBox="0 0 42 42" fill="none" xmlns="http://www.w3.org/2000/svg">
<g id="vuesax/bulk/message-notif">
<g id="message-notif">
<path id="Vector" d="M35 11.8125C37.6579 11.8125 39.8125 9.65787 39.8125 7C39.8125 4.34213 37.6579 2.1875 35 2.1875C32.3421 2.1875 30.1875 4.34213 30.1875 7C30.1875 9.65787 32.3421 11.8125 35 11.8125Z" fill="#00A86B"/>
<path id="Vector_2" opacity="0.4" d="M35 14C31.1325 14 28 10.8675 28 7C28 5.7225 28.3675 4.5325 28.98 3.5H12.25C7.42 3.5 3.5 7.4025 3.5 12.215V22.68V24.43C3.5 29.2425 7.42 33.145 12.25 33.145H14.875C15.3475 33.145 15.9775 33.46 16.275 33.845L18.9 37.3275C20.055 38.8675 21.945 38.8675 23.1 37.3275L25.725 33.845C26.0575 33.4075 26.5825 33.145 27.125 33.145H29.75C34.58 33.145 38.5 29.2425 38.5 24.43V13.02C37.4675 13.6325 36.2775 14 35 14Z" fill="#00A86B"/>
<path id="Vector_3" d="M21 21C20.02 21 19.25 20.2125 19.25 19.25C19.25 18.2875 20.0375 17.5 21 17.5C21.9625 17.5 22.75 18.2875 22.75 19.25C22.75 20.2125 21.98 21 21 21Z" fill="#00A86B"/>
<path id="Vector_4" d="M28 21C27.02 21 26.25 20.2125 26.25 19.25C26.25 18.2875 27.0375 17.5 28 17.5C28.9625 17.5 29.75 18.2875 29.75 19.25C29.75 20.2125 28.98 21 28 21Z" fill="#00A86B"/>
<path id="Vector_5" d="M14 21C13.02 21 12.25 20.2125 12.25 19.25C12.25 18.2875 13.0375 17.5 14 17.5C14.9625 17.5 15.75 18.2875 15.75 19.25C15.75 20.2125 14.98 21 14 21Z" fill="#00A86B"/>
</g>
</g>
</svg>
