<svg width="42" height="42" viewBox="0 0 42 42" fill="none" xmlns="http://www.w3.org/2000/svg">
<g id="vuesax/bulk/sms-notification">
<g id="sms-notification">
<path id="Vector" d="M34.125 14C36.5412 14 38.5 12.0412 38.5 9.625C38.5 7.20875 36.5412 5.25 34.125 5.25C31.7088 5.25 29.75 7.20875 29.75 9.625C29.75 12.0412 31.7088 14 34.125 14Z" fill="#00A86B"/>
<path id="Vector_2" d="M34.125 14C36.5412 14 38.5 12.0412 38.5 9.625C38.5 7.20875 36.5412 5.25 34.125 5.25C31.7088 5.25 29.75 7.20875 29.75 9.625C29.75 12.0412 31.7088 14 34.125 14Z" fill="#00A86B"/>
<path id="Vector_3" opacity="0.4" d="M36.26 16.2926C37.3625 15.9426 38.5 16.8001 38.5 17.9726V27.1426C38.5 33.2676 35 35.8926 29.75 35.8926H12.25C7 35.8926 3.5 33.2676 3.5 27.1426V14.8926C3.5 8.76758 7 6.14258 12.25 6.14258H25.5675C26.705 6.14258 27.475 7.1926 27.265 8.2951C27.055 9.3276 27.09 10.4301 27.405 11.5676C28.0525 13.9126 29.96 15.7851 32.305 16.3976C33.6875 16.7476 35.035 16.6776 36.26 16.2926Z" fill="#00A86B"/>
<g id="Group">
<path id="Vector_4" d="M20.9999 22.5223C19.5299 22.5223 18.0424 22.0674 16.9049 21.1399L11.4274 16.7649C10.8674 16.3099 10.7624 15.4874 11.2174 14.9274C11.6724 14.3674 12.4948 14.2624 13.0548 14.7174L18.5323 19.0924C19.8623 20.1599 22.1198 20.1599 23.4498 19.0924L25.5148 17.4474C26.0748 16.9924 26.9149 17.0798 27.3524 17.6573C27.8074 18.2173 27.7199 19.0574 27.1424 19.4949L25.0773 21.1399C23.9573 22.0674 22.4699 22.5223 20.9999 22.5223Z" fill="#00A86B"/>
</g>
</g>
</g>
</svg>
