<svg width="20" height="20" viewBox="0 0 20 20" fill="none" xmlns="http://www.w3.org/2000/svg">
<path d="M2.79154 1.66699H10.2082C10.8249 1.66699 11.3332 2.17533 11.3332 2.792V4.02531C11.3332 4.47531 11.0499 5.03366 10.7749 5.317L8.35826 7.45033C8.02492 7.73366 7.79989 8.29198 7.79989 8.74198V11.1587C7.79989 11.492 7.5749 11.942 7.29156 12.117L6.50823 12.6253C5.7749 13.0753 4.76654 12.567 4.76654 11.667V8.69199C4.76654 8.30032 4.54156 7.792 4.31656 7.50867L2.18323 5.25866C1.89989 4.97532 1.67491 4.47532 1.67491 4.13365V2.842C1.66657 2.17533 2.17488 1.66699 2.79154 1.66699Z" stroke="white" stroke-width="1.5" stroke-miterlimit="10" stroke-linecap="round" stroke-linejoin="round"/>
<path d="M1.6665 9.99955V12.4996C1.6665 16.6662 3.33317 18.3329 7.49984 18.3329H12.4998C16.6665 18.3329 18.3332 16.6662 18.3332 12.4996V7.49955C18.3332 4.89955 17.6831 3.26621 16.1748 2.41621C15.7498 2.17455 14.8998 1.99121 14.1248 1.86621" stroke="white" stroke-width="1.5" stroke-linecap="round" stroke-linejoin="round"/>
<path d="M10.8335 10.833H15.0002" stroke="white" stroke-width="1.5" stroke-linecap="round" stroke-linejoin="round"/>
<path d="M9.1665 14.167H14.9998" stroke="white" stroke-width="1.5" stroke-linecap="round" stroke-linejoin="round"/>
</svg>
