<svg width="24" height="25" viewBox="0 0 24 25" fill="none" xmlns="http://www.w3.org/2000/svg">
<path d="M20.04 6.82751L14.28 2.79751C12.71 1.69751 10.3 1.75751 8.78999 2.92751L3.77999 6.83751C2.77999 7.61751 1.98999 9.21751 1.98999 10.4775V17.3775C1.98999 19.9275 4.05999 22.0075 6.60999 22.0075H17.39C19.94 22.0075 22.01 19.9375 22.01 17.3875V10.6075C22.01 9.25751 21.14 7.59751 20.04 6.82751ZM12.75 18.0075C12.75 18.4175 12.41 18.7575 12 18.7575C11.59 18.7575 11.25 18.4175 11.25 18.0075V15.0075C11.25 14.5975 11.59 14.2575 12 14.2575C12.41 14.2575 12.75 14.5975 12.75 15.0075V18.0075Z" fill="#00A86B"/>
</svg>
