<svg width="28" height="37" viewBox="0 0 28 37" fill="none" xmlns="http://www.w3.org/2000/svg">
<path d="M27 11.6621C27 14.7842 25.5178 20.7983 23.0921 26.0441C21.882 28.6611 20.4527 31.0516 18.8845 32.7798C17.3083 34.5168 15.657 35.5152 14 35.5152C12.343 35.5152 10.6917 34.5168 9.11547 32.7798C7.54731 31.0516 6.11801 28.6611 4.90788 26.0441C2.48218 20.7983 1 14.7842 1 11.6621C1 5.56361 6.74911 0.5 14 0.5C21.2509 0.5 27 5.56361 27 11.6621Z" fill="black" stroke="#00A86B"/>
<path fill-rule="evenodd" clip-rule="evenodd" d="M11.1054 10.8196C9.62003 11.1106 9.19557 11.5496 8.47586 13.5396C8.20495 14.289 8.04284 14.5606 7.8504 14.5877C7.15218 14.6859 7.00067 14.7654 6.84441 15.1162C6.63701 15.5817 6.73316 15.8484 7.14279 15.9438L7.45464 16.0164L7.41031 18.3992C7.36624 20.7637 7.36828 20.7835 7.6785 20.9856C8.06161 21.2351 9.67334 21.2667 10.0057 21.0311C10.1302 20.9429 10.2469 20.6495 10.2697 20.3673L10.3106 19.8616H13.7786H17.2466L17.2876 20.3673C17.3424 21.0443 17.5915 21.1892 18.7006 21.1892C19.4591 21.1892 19.6782 21.1412 19.9114 20.9244C20.1834 20.6715 20.194 20.556 20.1494 18.3481L20.1026 16.0365L20.4928 15.8997C20.8336 15.7802 20.871 15.7181 20.7882 15.4099C20.6491 14.8916 20.3198 14.6143 19.8435 14.6143C19.4389 14.6142 19.4079 14.5746 19.043 13.5903C18.355 11.7346 18.1933 11.5001 17.3353 11.1149C16.596 10.783 16.4731 10.7687 14.1186 10.7395C12.7722 10.7227 11.4163 10.7588 11.1054 10.8196ZM16.9556 11.9442C17.4017 12.2889 18.367 14.605 18.123 14.7452C17.6988 14.9888 9.83953 14.9781 9.41345 14.7332C9.28724 14.6606 9.33647 14.4018 9.61609 13.6697C10.1091 12.3788 10.3996 11.9214 10.7962 11.8118C10.978 11.7616 12.3872 11.7315 13.928 11.745C16.0815 11.7638 16.7816 11.8099 16.9556 11.9442ZM9.79955 16.7726C10.698 17.0547 10.9988 17.2819 10.8741 17.584C10.7734 17.828 10.1223 17.8261 9.77317 17.5807C9.58059 17.4453 9.32872 17.4161 8.85517 17.4745L8.20264 17.555V17.1172C8.20264 16.8765 8.24344 16.6415 8.29335 16.5952C8.45329 16.4464 8.94479 16.5043 9.79955 16.7726ZM19.3281 17.0372L19.3696 17.5002L18.5121 17.5657C18.0405 17.6017 17.4252 17.6699 17.1446 17.7171C16.5872 17.811 16.4837 17.6547 16.8257 17.2357C17.0608 16.9476 18.3508 16.5161 18.8786 16.5488C19.2442 16.5715 19.291 16.6223 19.3281 17.0372Z" fill="#00A86B"/>
</svg>
