<svg width="29" height="26" viewBox="0 0 29 26" fill="none" xmlns="http://www.w3.org/2000/svg">
<path d="M14.3 12.35C16.12 12.35 17.55 10.92 17.55 9.1C17.55 7.28 16.12 5.85 14.3 5.85C12.48 5.85 11.05 7.28 11.05 9.1C11.05 10.92 12.48 12.35 14.3 12.35ZM14.3 0C19.37 0 23.4 4.03 23.4 9.1C23.4 15.86 14.3 26 14.3 26C14.3 26 5.2 15.86 5.2 9.1C5.2 4.03 9.23 0 14.3 0ZM2.6 9.1C2.6 14.95 9.23 23.01 10.4 24.44L9.1 26C9.1 26 0 15.86 0 9.1C0 4.94 2.73 1.56 6.5 0.39C4.16 2.47 2.6 5.59 2.6 9.1ZM22.1 0.39C25.87 1.56 28.6 4.94 28.6 9.1C28.6 15.86 19.5 26 19.5 26L18.2 24.44C19.37 23.01 26 14.95 26 9.1C26 5.59 24.44 2.47 22.1 0.39Z" fill="white"/>
</svg>
