<svg width="24" height="25" viewBox="0 0 24 25" fill="none" xmlns="http://www.w3.org/2000/svg">
<g opacity="0.4">
<path d="M17.98 10.7978V14.7978C17.98 15.0578 17.97 15.3078 17.94 15.5478C17.71 18.2478 16.12 19.5878 13.19 19.5878H12.79C12.54 19.5878 12.3 19.7078 12.15 19.9078L10.95 21.5078C10.42 22.2178 9.56 22.2178 9.03 21.5078L7.82999 19.9078C7.69999 19.7378 7.41 19.5878 7.19 19.5878H6.79001C3.60001 19.5878 2 18.7978 2 14.7978V10.7978C2 7.86782 3.35001 6.27782 6.04001 6.04782C6.28001 6.01782 6.53001 6.00781 6.79001 6.00781H13.19C16.38 6.00781 17.98 7.60782 17.98 10.7978Z" stroke="#151B33" stroke-width="1.5" stroke-miterlimit="10" stroke-linecap="round" stroke-linejoin="round"/>
<path d="M21.98 6.79782V10.7978C21.98 13.7378 20.63 15.3178 17.94 15.5478C17.97 15.3078 17.98 15.0578 17.98 14.7978V10.7978C17.98 7.60782 16.38 6.00781 13.19 6.00781H6.79004C6.53004 6.00781 6.28004 6.01782 6.04004 6.04782C6.27004 3.35782 7.86004 2.00781 10.79 2.00781H17.19C20.38 2.00781 21.98 3.60782 21.98 6.79782Z" stroke="#151B33" stroke-width="1.5" stroke-miterlimit="10" stroke-linecap="round" stroke-linejoin="round"/>
<path d="M13.4955 13.2578H13.5045" stroke="#151B33" stroke-width="2" stroke-linecap="round" stroke-linejoin="round"/>
<path d="M9.9955 13.2578H10.0045" stroke="#151B33" stroke-width="2" stroke-linecap="round" stroke-linejoin="round"/>
<path d="M6.4955 13.2578H6.5045" stroke="#151B33" stroke-width="2" stroke-linecap="round" stroke-linejoin="round"/>
</g>
</svg>
