<svg width="25" height="25" viewBox="0 0 25 25" fill="none" xmlns="http://www.w3.org/2000/svg">
<path d="M12.5 10.5282C12.09 10.5282 11.75 10.1882 11.75 9.77824V6.44824C11.75 6.03824 12.09 5.69824 12.5 5.69824C12.91 5.69824 13.25 6.03824 13.25 6.44824V9.77824C13.25 10.1982 12.91 10.5282 12.5 10.5282Z" fill="black" fill-opacity="0.3"/>
<path d="M12.5199 20.358C9.93987 20.358 7.36987 19.948 4.91987 19.128C4.00987 18.828 3.31987 18.178 3.01987 17.358C2.71987 16.538 2.81987 15.598 3.30987 14.778L4.57987 12.658C4.85987 12.188 5.10987 11.308 5.10987 10.758V8.65805C5.10987 4.56805 8.42987 1.24805 12.5199 1.24805C16.6099 1.24805 19.9299 4.56805 19.9299 8.65805V10.758C19.9299 11.298 20.1799 12.188 20.4599 12.658L21.7299 14.778C22.1999 15.558 22.2799 16.488 21.9699 17.338C21.6599 18.188 20.9799 18.838 20.1199 19.128C17.6699 19.958 15.0999 20.358 12.5199 20.358ZM12.5199 2.75805C9.25987 2.75805 6.60987 5.40805 6.60987 8.66805V10.768C6.60987 11.578 6.28987 12.748 5.86987 13.438L4.59987 15.568C4.33987 15.998 4.27987 16.458 4.42987 16.858C4.57987 17.258 4.91987 17.558 5.39987 17.718C9.99987 19.248 15.0599 19.248 19.6599 17.718C20.0899 17.578 20.4199 17.258 20.5699 16.838C20.7299 16.418 20.6799 15.958 20.4499 15.568L19.1799 13.448C18.7599 12.758 18.4399 11.588 18.4399 10.778V8.67805C18.4299 5.40805 15.7799 2.75805 12.5199 2.75805Z" fill="black" fill-opacity="0.3"/>
<path d="M12.4999 22.9081C11.4299 22.9081 10.3799 22.4681 9.61992 21.7081C8.85992 20.9481 8.41992 19.8981 8.41992 18.8281H9.91992C9.91992 19.5081 10.1999 20.1681 10.6799 20.6481C11.1599 21.1281 11.8199 21.4081 12.4999 21.4081C13.9199 21.4081 15.0799 20.2481 15.0799 18.8281H16.5799C16.5799 21.0781 14.7499 22.9081 12.4999 22.9081Z" fill="black" fill-opacity="0.3"/>
</svg>
