<svg width="25" height="25" viewBox="0 0 25 25" fill="none" xmlns="http://www.w3.org/2000/svg">
<path d="M12.6596 11.6278C12.6296 11.6278 12.6096 11.6278 12.5796 11.6278C12.5296 11.6178 12.4596 11.6178 12.3996 11.6278C9.49957 11.5378 7.30957 9.25781 7.30957 6.44781C7.30957 3.58781 9.63957 1.25781 12.4996 1.25781C15.3596 1.25781 17.6896 3.58781 17.6896 6.44781C17.6796 9.25781 15.4796 11.5378 12.6896 11.6278C12.6796 11.6278 12.6696 11.6278 12.6596 11.6278ZM12.4996 2.75781C10.4696 2.75781 8.80957 4.41781 8.80957 6.44781C8.80957 8.44781 10.3696 10.0578 12.3596 10.1278C12.4096 10.1178 12.5496 10.1178 12.6796 10.1278C14.6396 10.0378 16.1796 8.42781 16.1896 6.44781C16.1896 4.41781 14.5296 2.75781 12.4996 2.75781Z" fill="black" fill-opacity="0.3"/>
<path d="M12.6696 22.5578C10.7096 22.5578 8.73961 22.0578 7.24961 21.0578C5.85961 20.1378 5.09961 18.8778 5.09961 17.5078C5.09961 16.1378 5.85961 14.8678 7.24961 13.9378C10.2496 11.9478 15.1096 11.9478 18.0896 13.9378C19.4696 14.8578 20.2396 16.1178 20.2396 17.4878C20.2396 18.8578 19.4796 20.1278 18.0896 21.0578C16.5896 22.0578 14.6296 22.5578 12.6696 22.5578ZM8.07961 15.1978C7.11961 15.8378 6.59961 16.6578 6.59961 17.5178C6.59961 18.3678 7.12961 19.1878 8.07961 19.8178C10.5696 21.4878 14.7696 21.4878 17.2596 19.8178C18.2196 19.1778 18.7396 18.3578 18.7396 17.4978C18.7396 16.6478 18.2096 15.8278 17.2596 15.1978C14.7696 13.5378 10.5696 13.5378 8.07961 15.1978Z" fill="black" fill-opacity="0.3"/>
</svg>
