<svg width="9" height="13" viewBox="0 0 9 13" fill="none" xmlns="http://www.w3.org/2000/svg">
<path d="M7.30221 2.07886C6.47074 1.24775 5.38127 0.832031 4.29144 0.832031C3.20194 0.832031 2.11211 1.24775 1.28067 2.07886C-0.0444779 3.40401 -0.389577 5.42564 0.472992 6.97664C1.46282 8.75596 4.29144 12.2891 4.29144 12.2891C4.29144 12.2891 7.12039 8.75596 8.11022 6.97664C8.97277 5.42562 8.62767 3.40401 7.30221 2.07886ZM4.29144 7.67593C2.86349 7.67593 1.70548 6.51791 1.70548 5.09032C1.70548 3.66134 2.86349 2.50333 4.29144 2.50333C5.71972 2.50333 6.87774 3.66134 6.87774 5.09032C6.87774 6.51791 5.71972 7.67593 4.29144 7.67593Z" fill="#00A86B"/>
</svg>
