<svg width="80" height="14" viewBox="0 0 80 14" fill="none" xmlns="http://www.w3.org/2000/svg">
<path fill-rule="evenodd" clip-rule="evenodd" d="M6.67587 1.94532C6.82722 1.4882 7.47384 1.4882 7.62519 1.94532L8.72507 5.26726C8.79283 5.47192 8.98414 5.6101 9.19973 5.6101H12.7386C13.2252 5.6101 13.4251 6.2347 13.0288 6.51721L10.1822 8.54687C10.0037 8.67417 9.92892 8.90296 9.99785 9.11114L11.089 12.4069C11.241 12.8659 10.7178 13.2518 10.3241 12.9711L7.4408 10.9154C7.2671 10.7916 7.03396 10.7916 6.86027 10.9154L3.97727 12.971C3.58358 13.2518 3.06036 12.8658 3.21234 12.4068L4.30351 9.11115C4.37243 8.90297 4.29767 8.67417 4.11911 8.54687L1.27233 6.51722C0.876081 6.23471 1.07595 5.6101 1.56259 5.6101H5.10133C5.31692 5.6101 5.50823 5.47192 5.57599 5.26726L6.67587 1.94532Z" fill="#FFDB1F"/>
<path fill-rule="evenodd" clip-rule="evenodd" d="M22.9767 1.94532C23.128 1.4882 23.7746 1.4882 23.926 1.94532L25.0258 5.26726C25.0936 5.47192 25.2849 5.6101 25.5005 5.6101H29.0393C29.526 5.6101 29.7258 6.2347 29.3296 6.51721L26.483 8.54687C26.3045 8.67417 26.2297 8.90296 26.2986 9.11114L27.3898 12.4069C27.5418 12.8659 27.0186 13.2518 26.6249 12.9711L23.7416 10.9154C23.5679 10.7916 23.3347 10.7916 23.161 10.9154L20.2781 12.971C19.8844 13.2518 19.3611 12.8658 19.5131 12.4068L20.6043 9.11115C20.6732 8.90297 20.5984 8.67417 20.4199 8.54687L17.5731 6.51722C17.1769 6.23471 17.3767 5.6101 17.8634 5.6101H21.4021C21.6177 5.6101 21.809 5.47192 21.8768 5.26726L22.9767 1.94532Z" fill="#FFDB1F"/>
<path fill-rule="evenodd" clip-rule="evenodd" d="M39.2774 1.94532C39.4288 1.4882 40.0754 1.4882 40.2268 1.94532L41.3266 5.26726C41.3944 5.47192 41.5857 5.6101 41.8013 5.6101H45.3401C45.8268 5.6101 46.0266 6.2347 45.6304 6.51721L42.7838 8.54687C42.6052 8.67417 42.5305 8.90296 42.5994 9.11114L43.6906 12.4069C43.8426 12.8659 43.3194 13.2518 42.9257 12.9711L40.0424 10.9154C39.8687 10.7916 39.6355 10.7916 39.4618 10.9154L36.5788 12.971C36.1851 13.2518 35.6619 12.8658 35.8139 12.4068L36.9051 9.11115C36.974 8.90297 36.8992 8.67417 36.7207 8.54687L33.8739 6.51722C33.4776 6.23471 33.6775 5.6101 34.1642 5.6101H37.7029C37.9185 5.6101 38.1098 5.47192 38.1776 5.26726L39.2774 1.94532Z" fill="#FFDB1F"/>
<path fill-rule="evenodd" clip-rule="evenodd" d="M55.5782 1.94532C55.7296 1.4882 56.3762 1.4882 56.5275 1.94532L57.6274 5.26726C57.6952 5.47192 57.8865 5.6101 58.1021 5.6101H61.6409C62.1275 5.6101 62.3274 6.2347 61.9312 6.51721L59.0846 8.54687C58.906 8.67417 58.8313 8.90296 58.9002 9.11114L59.9914 12.4069C60.1434 12.8659 59.6202 13.2518 59.2265 12.9711L56.3431 10.9154C56.1694 10.7916 55.9363 10.7916 55.7626 10.9154L52.8796 12.971C52.4859 13.2518 51.9627 12.8658 52.1147 12.4068L53.2058 9.11115C53.2748 8.90297 53.2 8.67417 53.0215 8.54687L50.1747 6.51722C49.7784 6.23471 49.9783 5.6101 50.4649 5.6101H54.0037C54.2193 5.6101 54.4106 5.47192 54.4783 5.26726L55.5782 1.94532Z" fill="#FFDB1F"/>
<path fill-rule="evenodd" clip-rule="evenodd" d="M71.879 1.94532C72.0303 1.4882 72.677 1.4882 72.8283 1.94532L73.9282 5.26726C73.996 5.47192 74.1873 5.6101 74.4029 5.6101H77.9417C78.4283 5.6101 78.6282 6.2347 78.232 6.51721L75.3854 8.54687C75.2068 8.67417 75.132 8.90296 75.201 9.11114L76.2922 12.4069C76.4441 12.8659 75.9209 13.2518 75.5273 12.9711L72.6439 10.9154C72.4702 10.7916 72.2371 10.7916 72.0634 10.9154L69.1804 12.971C68.7867 13.2518 68.2635 12.8658 68.4155 12.4068L69.5066 9.11115C69.5756 8.90297 69.5008 8.67417 69.3222 8.54687L66.4755 6.51722C66.0792 6.23471 66.2791 5.6101 66.7657 5.6101H70.3045C70.52 5.6101 70.7114 5.47192 70.7791 5.26726L71.879 1.94532Z" fill="#979797"/>
</svg>
