<svg width="18" height="17" viewBox="0 0 18 17" fill="none" xmlns="http://www.w3.org/2000/svg">
<path fill-rule="evenodd" clip-rule="evenodd" d="M2.25173 7.44322C2.25173 6.03317 2.84482 4.68088 3.90052 3.68382C4.95622 2.68677 6.38806 2.12663 7.88105 2.12663C9.37404 2.12663 10.8059 2.68677 11.8616 3.68382C12.9173 4.68088 13.5104 6.03317 13.5104 7.44322C13.5104 8.85326 12.9173 10.2056 11.8616 11.2026C10.8059 12.1997 9.37404 12.7598 7.88105 12.7598C6.38806 12.7598 4.95622 12.1997 3.90052 11.2026C2.84482 10.2056 2.25173 8.85326 2.25173 7.44322ZM7.88105 0C6.63229 0 5.40139 0.280261 4.28981 0.817687C3.17823 1.35511 2.21778 2.13432 1.48761 3.09109C0.757444 4.04786 0.278462 5.15481 0.0901368 6.32071C-0.0981881 7.48662 0.0095357 8.6781 0.404431 9.79697C0.799326 10.9158 1.47009 11.9301 2.36144 12.7561C3.25279 13.5821 4.33921 14.1962 5.53118 14.5479C6.72314 14.8995 7.98653 14.9786 9.21722 14.7787C10.4479 14.5787 11.6107 14.1054 12.6097 13.3978C12.6417 13.438 12.6767 13.476 12.7144 13.5116L16.092 16.7015C16.3043 16.8952 16.5887 17.0024 16.8839 17C17.1791 16.9975 17.4615 16.8857 17.6702 16.6886C17.879 16.4914 17.9974 16.2247 18 15.9459C18.0025 15.6671 17.889 15.3985 17.684 15.198L14.3064 12.008C14.2687 11.9724 14.2285 11.9394 14.1859 11.9091C15.0641 10.8033 15.5988 9.48837 15.7303 8.11166C15.8617 6.73495 15.5846 5.35087 14.9301 4.11451C14.2755 2.87815 13.2694 1.83835 12.0244 1.11164C10.7793 0.384923 9.34466 0 7.88105 0Z" fill="white"/>
</svg>
