<svg width="32" height="37" viewBox="0 0 32 37" fill="none" xmlns="http://www.w3.org/2000/svg">
<path d="M26.6445 35.5251C24.6436 37.4647 22.459 37.1585 20.3561 36.2397C18.1307 35.3005 16.089 35.2597 13.7411 36.2397C10.8011 37.5055 9.24945 37.138 7.49362 35.5251C-2.46972 25.2555 -0.999715 9.61637 10.3111 9.0447C13.0674 9.18762 14.9865 10.5555 16.5995 10.678C19.0086 10.188 21.3157 8.77928 23.8882 8.96303C26.9711 9.20803 29.2986 10.433 30.8299 12.638C24.4599 16.4559 25.9707 24.8472 31.8099 27.1951C30.6461 30.2576 29.1353 33.2997 26.624 35.5455L26.6445 35.5251ZM16.3953 8.9222C16.089 4.36928 19.7845 0.612617 24.0311 0.245117C24.6232 5.51262 19.2536 9.43262 16.3953 8.9222Z" fill="black"/>
</svg>
